<?xml version="1.0" standalone="no"?>
<!DOCTYPE svg PUBLIC "-//W3C//DTD SVG 20010904//EN"
 "http://www.w3.org/TR/2001/REC-SVG-20010904/DTD/svg10.dtd">
<svg version="1.0" xmlns="http://www.w3.org/2000/svg"
 width="1680.000000pt" height="1614.000000pt" viewBox="0 0 1680.000000 1614.000000"
 preserveAspectRatio="xMidYMid meet">
<g transform="translate(0.000000,1614.000000) scale(0.040000,-0.040000)"
fill="#000000" stroke="none">
<path d="M0 20175 l0 -20175 21000 0 21000 0 0 20175 0 20175 -21000 0 -21000
0 0 -20175z m22188 19451 c55 -13 235 -29 400 -35 454 -18 1701 -192 2150
-300 82 -20 301 -71 487 -114 847 -196 1319 -329 1988 -563 261 -91 536 -183
612 -205 76 -21 149 -48 163 -59 13 -11 169 -77 345 -147 176 -71 372 -152
436 -181 63 -29 155 -67 204 -84 304 -108 1552 -738 1865 -942 123 -80 286
-176 362 -213 76 -36 218 -115 317 -175 99 -59 189 -108 200 -108 44 0 283
-231 283 -273 0 -65 23 -77 89 -47 50 23 77 16 167 -45 58 -39 133 -86 165
-103 33 -18 112 -75 175 -128 64 -53 166 -128 228 -166 105 -66 397 -281 702
-518 77 -59 230 -186 341 -282 111 -97 263 -225 336 -285 464 -377 1853 -1733
2078 -2028 57 -76 168 -205 245 -287 191 -205 509 -608 713 -905 93 -135 189
-268 213 -295 24 -28 74 -107 111 -175 38 -69 89 -148 113 -175 114 -126 401
-534 495 -701 56 -102 141 -235 187 -295 81 -106 467 -790 467 -827 0 -10 31
-66 70 -123 68 -102 107 -187 192 -417 23 -62 102 -227 175 -367 134 -254 217
-438 324 -721 32 -83 86 -213 121 -288 113 -243 307 -761 417 -1111 30 -97 89
-271 130 -388 42 -117 84 -246 95 -287 11 -42 56 -199 99 -350 130 -453 147
-515 201 -775 29 -138 75 -340 102 -450 54 -226 131 -667 173 -996 16 -121 40
-250 54 -286 13 -37 24 -140 23 -230 -1 -90 10 -259 24 -376 105 -886 114
-2726 16 -3551 -20 -171 -45 -401 -54 -511 -32 -380 -165 -1178 -245 -1463
-21 -76 -45 -182 -54 -237 -33 -218 -267 -1112 -338 -1300 -93 -242 -147 -404
-237 -700 -67 -223 -126 -374 -364 -938 -66 -158 -151 -361 -187 -450 -36 -89
-98 -230 -136 -312 -39 -83 -110 -235 -158 -338 -49 -103 -127 -272 -174 -375
-47 -103 -136 -266 -198 -362 -61 -97 -139 -226 -172 -288 -119 -223 -451
-767 -610 -1000 -89 -131 -260 -384 -380 -562 -120 -179 -287 -411 -370 -516
-83 -105 -222 -287 -309 -406 -86 -118 -236 -308 -332 -422 -97 -113 -257
-302 -356 -418 -524 -617 -1729 -1790 -2229 -2169 -110 -84 -264 -207 -341
-273 -591 -509 -1506 -1150 -2322 -1625 -158 -92 -305 -182 -326 -200 -63 -53
-1471 -784 -1510 -784 -5 0 -138 -61 -296 -135 -262 -124 -415 -189 -980 -414
-111 -44 -257 -103 -325 -131 -211 -85 -455 -166 -1513 -499 -281 -88 -618
-175 -962 -248 -138 -29 -318 -67 -400 -85 -931 -197 -1316 -256 -2350 -362
-1048 -108 -3197 -89 -4065 35 -118 17 -623 81 -805 101 -79 9 -247 39 -375
65 -127 27 -303 60 -393 74 -89 14 -252 47 -362 74 -110 26 -360 82 -555 123
-196 41 -471 108 -613 150 -142 41 -319 92 -395 112 -143 40 -570 182 -787
262 -69 26 -187 66 -263 89 -76 23 -177 57 -225 76 -492 196 -616 246 -800
325 -117 50 -257 112 -312 137 -279 131 -544 251 -551 251 -19 0 -690 333
-837 415 -89 50 -241 131 -337 179 -226 114 -969 561 -1338 806 -158 105 -332
221 -387 257 -55 35 -162 111 -238 167 -328 244 -859 645 -947 714 -52 41
-195 151 -318 245 -318 243 -1641 1468 -1799 1666 -116 145 -348 406 -609 686
-129 139 -334 387 -455 553 -121 165 -333 446 -471 625 -598 773 -1650 2445
-1651 2625 0 13 -100 222 -221 463 -121 241 -280 578 -353 750 -73 171 -175
407 -227 524 -103 234 -308 852 -570 1713 -89 293 -229 882 -229 964 0 31 -16
113 -35 183 -35 127 -75 300 -154 678 -23 110 -51 230 -62 267 -39 130 -149
1236 -150 1508 0 68 -11 170 -24 225 -32 139 -37 2517 -5 2675 14 68 33 220
42 337 42 555 114 1056 219 1525 42 186 84 394 94 463 51 332 276 1273 365
1525 90 253 260 793 260 827 0 58 67 90 120 57 127 -79 199 56 80 153 l-82 67
82 198 c91 219 241 625 280 758 13 47 86 206 160 352 74 147 135 277 135 289
0 32 400 840 438 886 18 21 121 201 230 400 109 199 231 412 271 472 86 128
92 139 222 353 54 89 262 396 462 681 201 285 415 591 477 679 225 321 721
950 938 1189 70 76 234 262 366 414 358 409 1350 1366 1694 1633 77 60 213
178 303 263 410 385 1845 1416 2335 1676 65 35 216 125 335 200 572 360 2030
1086 2579 1283 213 77 549 210 688 272 137 62 510 196 687 246 62 18 180 57
263 87 160 59 283 94 875 248 662 172 1335 329 1412 329 42 0 174 22 294 49
120 26 483 77 806 112 323 36 644 77 713 91 295 63 2893 82 3150 24z m15201
-7128 c9 -15 5 -39 -10 -54 -31 -31 -112 22 -90 59 19 31 80 28 100 -5z"/>
<path d="M20881 39563 c-226 -99 -52 -245 190 -161 88 31 104 95 40 159 -48
48 -122 48 -230 2z"/>
<path d="M19678 39374 c-98 -29 -200 -42 -263 -34 -178 21 -349 -66 -274 -141
57 -57 909 62 909 126 0 36 -107 100 -162 98 -28 -1 -122 -23 -210 -49z"/>
<path d="M22505 39370 c-50 -50 -34 -116 39 -163 38 -24 74 -50 81 -59 89
-111 168 -49 126 99 -42 146 -163 206 -246 123z"/>
<path d="M23560 39241 c-18 -49 7 -91 56 -91 24 0 35 19 29 54 -9 66 -64 90
-85 37z"/>
<path d="M21393 39165 c-31 -33 -69 -77 -85 -97 -40 -50 -942 -29 -1023 23
-46 30 -60 29 -113 -13 -53 -42 -119 -50 -473 -63 -688 -24 -1463 -107 -2011
-215 -207 -40 -499 -96 -650 -125 -609 -113 -879 -179 -1463 -355 -416 -126
-826 -269 -947 -330 -36 -18 -108 -41 -159 -50 -163 -30 -749 -233 -931 -323
-97 -47 -227 -104 -290 -125 -63 -21 -365 -152 -671 -290 -305 -139 -562 -252
-569 -252 -8 0 -78 -43 -155 -96 -77 -52 -292 -177 -478 -278 -186 -100 -403
-226 -484 -279 -81 -53 -155 -97 -164 -97 -18 0 -427 -270 -889 -587 -292
-200 -781 -564 -1013 -755 -746 -613 -1083 -903 -1400 -1206 -287 -274 -313
-288 -338 -177 -28 128 -189 164 -219 49 -23 -87 10 -151 86 -166 40 -8 78
-24 86 -37 12 -20 -265 -327 -551 -608 -70 -69 -157 -166 -194 -216 -37 -49
-142 -173 -234 -275 -268 -296 -288 -320 -527 -622 -428 -540 -1093 -1494
-1366 -1957 -66 -112 -134 -221 -152 -242 -58 -69 -1133 -2258 -1204 -2451
-37 -103 -139 -356 -225 -562 -87 -207 -176 -443 -199 -525 -24 -83 -102 -342
-174 -575 -202 -649 -201 -645 -324 -1194 -19 -86 -70 -342 -114 -569 -43
-227 -91 -469 -106 -537 -76 -339 -110 -631 -157 -1350 -8 -124 -27 -377 -41
-563 -15 -186 -31 -439 -35 -562 -5 -124 -15 -315 -23 -425 -17 -226 24 -1304
63 -1649 14 -124 31 -294 37 -376 18 -216 106 -831 162 -1140 27 -145 49 -299
49 -342 0 -75 127 -621 222 -956 26 -89 65 -236 88 -325 23 -89 65 -230 93
-312 28 -83 83 -257 122 -388 39 -131 107 -333 150 -450 44 -117 99 -269 124
-337 24 -69 66 -176 93 -238 27 -62 69 -163 93 -225 25 -62 72 -173 106 -246
33 -73 67 -184 76 -246 8 -62 31 -118 50 -126 18 -7 153 -250 298 -541 146
-291 279 -545 296 -566 17 -21 79 -133 138 -250 212 -417 614 -1060 930 -1487
81 -110 195 -270 253 -354 132 -193 452 -613 654 -859 85 -103 206 -255 269
-338 162 -213 682 -766 1495 -1586 107 -108 463 -428 875 -786 632 -549 1948
-1470 2831 -1980 782 -453 2412 -1258 2548 -1261 19 0 84 -23 146 -52 62 -28
173 -68 248 -88 74 -19 192 -64 262 -100 119 -60 766 -284 820 -284 14 0 53
-22 88 -50 35 -27 100 -50 143 -50 44 0 164 -29 266 -64 102 -35 309 -97 460
-139 150 -41 285 -84 300 -95 14 -11 104 -27 201 -36 96 -9 236 -34 312 -55
76 -21 244 -54 375 -73 409 -59 736 -116 775 -137 25 -13 38 -58 38 -137 0
-88 12 -127 48 -153 106 -78 179 -12 154 139 -19 121 30 143 223 100 69 -16
276 -45 462 -66 186 -20 377 -42 425 -48 48 -6 189 -15 313 -21 434 -22 634
-44 679 -79 57 -43 138 -46 179 -5 29 29 381 40 1267 42 192 1 1156 74 1325
101 82 14 268 37 412 52 144 15 358 43 475 62 117 20 359 59 538 88 178 29
437 79 575 112 137 32 289 66 337 74 157 27 435 93 545 128 59 19 137 35 175
35 67 0 402 97 907 263 146 48 278 87 295 87 16 0 202 73 413 162 211 90 399
163 418 163 39 0 771 294 810 325 13 11 112 56 220 98 107 43 343 155 525 249
181 94 498 258 705 365 206 106 456 248 556 315 99 67 229 146 287 175 137 69
785 490 1065 691 119 86 290 201 379 256 90 55 219 151 288 215 68 63 186 158
262 210 76 53 177 138 225 189 48 51 147 137 219 191 72 54 186 145 253 203
66 58 154 134 194 168 80 68 718 663 852 794 46 44 127 103 181 130 66 34 102
72 112 119 19 82 364 457 420 457 22 0 51 -34 65 -75 56 -160 141 -42 116 160
-17 131 -16 133 111 280 270 313 720 883 871 1104 167 243 191 257 309 188
131 -78 227 67 136 206 -59 90 -47 180 36 282 41 51 117 146 170 211 52 65
144 210 203 320 59 111 163 272 232 357 69 85 169 242 223 348 53 106 139 258
190 338 152 237 637 1220 781 1581 74 186 181 444 239 575 160 360 376 944
412 1112 17 82 45 183 63 225 17 41 44 126 60 188 15 62 45 169 66 238 20 68
48 201 61 294 13 93 51 262 84 375 79 269 186 798 231 1143 8 62 36 231 61
375 170 948 225 3243 99 4088 -13 82 -41 324 -63 537 -21 213 -51 433 -66 488
-15 55 -36 167 -46 250 -11 82 -41 251 -69 375 -27 123 -58 281 -67 350 -10
68 -56 276 -103 460 -107 417 -106 412 -10 393 87 -17 114 20 89 122 -12 46
-33 62 -80 62 -138 0 -193 77 -220 309 -8 66 -42 173 -76 237 -34 64 -102 240
-151 392 -112 347 -244 724 -295 837 -21 48 -86 211 -143 363 -58 151 -171
410 -251 575 -81 164 -204 429 -274 587 -70 158 -171 361 -223 450 -53 89
-160 286 -239 438 -79 151 -224 398 -324 550 -99 151 -235 364 -301 475 -67
110 -152 239 -188 287 -36 48 -121 176 -187 283 -66 108 -133 209 -148 225
-24 26 -147 189 -467 620 -583 784 -2030 2269 -2835 2910 -69 54 -199 162
-288 238 -158 135 -377 305 -721 560 -92 68 -296 220 -455 339 -159 118 -361
259 -450 312 -89 54 -248 157 -353 230 -105 74 -242 156 -304 183 -62 28 -172
95 -246 151 -73 55 -235 152 -358 215 -124 64 -384 204 -578 313 -194 108
-459 242 -588 298 -129 56 -305 134 -391 175 -86 40 -169 73 -185 73 -16 0
-47 15 -69 33 -41 35 -307 148 -627 267 -103 39 -300 117 -437 175 -138 58
-324 125 -413 149 -89 24 -298 91 -462 149 -165 58 -374 126 -463 150 -89 24
-281 79 -425 121 -144 42 -352 95 -462 117 -110 23 -369 80 -575 127 -398 90
-487 107 -997 187 -176 27 -329 55 -338 61 -44 27 -1467 145 -1703 141 -216
-4 -231 3 -283 129 -47 112 -117 124 -199 34z m-1008 -1080 c24 -62 18 -104
-20 -141 -52 -53 -180 -289 -239 -444 -30 -76 -70 -173 -90 -216 -20 -44 -36
-88 -36 -100 0 -11 -90 -213 -200 -449 l-201 -428 28 -185 c15 -101 41 -299
57 -439 24 -207 41 -267 87 -317 36 -37 55 -84 50 -120 -8 -57 -13 -58 -249
-49 -132 4 -279 -3 -325 -17 -375 -115 -438 -96 -384 114 35 137 3 879 -42
963 -14 27 -74 112 -132 190 -59 77 -127 180 -152 227 -113 221 -632 997 -686
1025 -62 34 -105 111 -87 158 11 28 84 34 368 33 196 -2 428 8 516 20 l160 22
-15 -97 c-9 -54 -22 -121 -31 -149 -11 -38 10 -84 73 -163 49 -61 131 -192
183 -292 148 -288 203 -277 294 54 33 119 83 255 112 300 61 100 65 184 12
260 -81 115 -31 155 197 158 316 5 394 15 542 69 171 61 191 63 210 13z m1017
-49 c82 -42 414 -80 898 -101 622 -28 1032 -239 1127 -579 48 -171 42 -410
-17 -700 -17 -87 -180 -253 -314 -320 -183 -93 -191 -130 -82 -344 50 -99 136
-280 191 -403 54 -124 137 -267 184 -319 127 -141 105 -271 -36 -216 -109 43
-531 95 -645 79 -150 -21 -221 31 -241 172 -14 107 -97 390 -199 678 -88 252
-175 318 -291 223 -73 -58 -102 -711 -37 -836 51 -98 38 -184 -27 -178 -200
20 -313 41 -390 74 -71 30 -123 33 -262 13 -287 -40 -372 31 -225 187 80 85
89 109 89 233 1 76 17 251 37 389 20 137 37 356 37 487 1 131 11 273 24 317
12 43 41 252 65 464 43 384 43 385 -10 488 -61 119 -65 159 -23 201 39 39 57
38 147 -9z m-4470 -392 c7 -17 6 -83 -1 -146 -11 -110 69 -529 120 -625 12
-23 57 -175 99 -338 42 -164 92 -348 112 -410 45 -147 212 -690 242 -792 13
-44 56 -120 96 -170 40 -50 66 -108 58 -127 -14 -37 -38 -45 -220 -74 -94 -15
-320 -93 -508 -176 -181 -80 -238 -38 -179 131 21 61 10 141 -63 435 -49 198
-103 477 -119 619 -24 209 -39 263 -77 283 -96 51 -117 -18 -169 -544 -28
-274 -55 -512 -61 -529 -11 -32 -269 -156 -326 -156 -19 0 -67 48 -107 107
-40 58 -149 202 -242 318 -93 117 -202 266 -243 331 -81 131 -170 160 -218 70
-21 -39 -9 -86 60 -231 47 -100 139 -334 203 -520 64 -186 155 -397 203 -471
97 -149 99 -207 8 -234 -34 -11 -158 -48 -275 -82 -117 -35 -250 -86 -295
-113 -156 -96 -250 -31 -198 138 28 91 -11 250 -221 900 -188 582 -302 947
-349 1120 -27 102 -70 179 -140 255 -128 139 -121 192 27 217 143 25 647 189
719 235 110 70 177 38 267 -127 23 -42 120 -171 216 -288 96 -117 224 -287
285 -379 111 -167 202 -231 240 -170 11 18 14 179 7 359 -10 253 -4 361 27
477 22 81 40 219 40 305 0 151 3 158 69 171 38 8 109 25 159 38 50 13 117 24
149 24 60 0 254 68 436 153 117 55 154 58 169 16z m7971 -53 c74 -33 225 -79
335 -102 364 -77 336 -46 426 -476 23 -110 57 -257 76 -325 19 -69 45 -193 58
-275 38 -243 102 -473 143 -513 49 -49 159 68 159 170 0 70 41 267 129 623 28
113 48 248 45 300 -13 213 2 219 269 117 102 -39 249 -72 369 -81 238 -20 254
-44 152 -232 -83 -151 -170 -402 -265 -759 -123 -463 -224 -817 -286 -1000
-125 -372 -142 -457 -112 -566 53 -197 -10 -218 -261 -87 -90 47 -223 98 -295
114 -193 41 -236 79 -293 257 -27 86 -83 244 -123 351 -71 186 -182 630 -218
868 -23 154 -60 199 -130 154 -56 -35 -285 -1021 -276 -1188 11 -208 -14 -217
-293 -109 -123 48 -292 101 -374 118 -273 55 -301 106 -137 249 92 81 106 110
161 339 33 137 100 373 149 524 49 151 89 302 89 335 0 33 22 106 48 163 48
102 173 496 228 719 22 88 22 139 1 203 -57 174 8 205 226 109z m4022 -1378
c80 -71 519 -287 636 -313 199 -44 237 -111 140 -245 -73 -100 -148 -547 -251
-1505 -13 -117 -46 -359 -73 -537 -47 -302 -48 -334 -12 -445 70 -213 -25
-257 -234 -108 -151 107 -356 210 -510 256 -172 51 -190 103 -85 236 87 109
127 234 100 306 -16 40 -190 149 -288 180 -28 9 -129 60 -224 114 -95 54 -189
98 -208 98 -59 0 -239 -235 -261 -341 -28 -135 -75 -133 -291 12 -102 68 -245
143 -318 167 -275 88 -322 176 -139 257 77 34 343 283 950 887 774 771 843
847 843 924 0 143 100 168 225 57z m-15800 -126 c24 -29 25 -62 4 -143 -16
-59 -45 -196 -64 -306 -58 -318 -88 -353 -220 -259 -293 209 -836 -143 -625
-404 62 -76 219 -72 459 12 732 257 1158 128 1380 -418 147 -361 80 -625 -241
-946 -324 -324 -570 -422 -1093 -437 -199 -6 -387 -17 -417 -26 -110 -31 -116
61 -20 344 48 142 93 289 100 327 20 109 81 123 237 55 336 -145 750 14 750
287 0 148 -171 256 -315 200 -263 -102 -738 -204 -889 -191 -806 71 -993 1049
-300 1572 77 58 185 121 240 140 56 19 112 44 126 54 60 47 285 103 473 118
111 9 225 25 253 36 77 31 128 26 162 -15z m8788 -1737 c220 -14 473 -27 562
-28 89 -1 208 -11 263 -23 55 -11 201 -33 325 -49 359 -47 1087 -201 1587
-336 913 -248 1185 -338 1741 -574 181 -77 336 -140 344 -140 8 0 157 -67 330
-150 173 -82 318 -150 324 -150 5 0 71 -28 146 -62 75 -35 145 -63 155 -63 38
0 356 -164 595 -306 136 -81 299 -175 362 -209 64 -35 211 -123 328 -198 117
-74 274 -168 350 -209 127 -68 250 -152 747 -508 191 -137 556 -430 1067 -856
336 -280 904 -846 1244 -1239 125 -144 278 -319 341 -388 62 -69 175 -208 251
-308 76 -101 177 -232 225 -292 130 -161 310 -410 388 -537 38 -62 129 -204
201 -315 72 -111 162 -263 200 -337 37 -75 111 -200 165 -278 111 -164 498
-957 620 -1270 161 -415 233 -590 328 -806 53 -120 159 -452 235 -738 76 -285
156 -580 179 -656 75 -251 128 -486 147 -648 10 -88 28 -195 40 -237 28 -97
85 -595 135 -1165 21 -241 44 -484 52 -541 12 -84 5 -112 -35 -147 -174 -150
-180 -158 -158 -216 11 -32 48 -64 80 -72 102 -23 125 -108 114 -411 -15 -395
-60 -1044 -89 -1263 -14 -103 -31 -266 -40 -362 -33 -395 -183 -1238 -238
-1340 -13 -24 -39 -110 -59 -190 -19 -80 -59 -235 -90 -345 -31 -110 -71 -257
-89 -325 -257 -956 -1030 -2574 -1603 -3350 -60 -83 -162 -229 -225 -325 -473
-719 -1766 -2078 -2556 -2688 -115 -89 -256 -203 -312 -252 -174 -151 -718
-560 -928 -696 -156 -103 -214 -128 -268 -117 -57 11 -71 4 -84 -48 -22 -88
-349 -300 -972 -630 -421 -223 -1226 -610 -1341 -644 -33 -10 -172 -67 -309
-126 -385 -165 -679 -276 -925 -350 -124 -36 -248 -75 -275 -86 -99 -39 -406
-123 -675 -186 -152 -36 -416 -98 -588 -138 -172 -40 -352 -80 -400 -89 -48
-9 -172 -34 -275 -54 -562 -112 -975 -163 -1687 -209 -742 -49 -2467 7 -2738
88 -62 18 -197 46 -300 61 -103 16 -283 50 -400 76 -117 27 -398 84 -625 128
-443 85 -1058 243 -1300 333 -48 18 -132 44 -187 58 -56 14 -213 65 -350 114
-138 50 -335 120 -438 156 -210 75 -778 312 -951 398 -62 30 -157 70 -210 88
-54 17 -233 102 -399 189 -896 467 -854 436 -762 560 98 133 -67 213 -210 101
-116 -91 -85 -106 -861 427 -405 279 -1018 749 -1282 983 -117 104 -270 234
-341 288 -149 116 -695 657 -1023 1016 -565 618 -1125 1353 -1483 1949 -58 96
-163 264 -233 374 -165 258 -519 943 -630 1217 -47 118 -128 302 -178 409 -51
106 -101 223 -112 259 -11 36 -77 251 -148 478 -342 1101 -356 1153 -402 1450
-16 103 -39 221 -51 263 -129 427 -222 1527 -222 2637 0 824 14 1019 150 2075
32 243 205 1126 257 1313 20 68 54 192 78 275 23 82 63 230 89 329 92 358 504
1419 711 1833 147 293 344 653 638 1161 353 610 947 1416 1516 2058 364 410
405 440 489 364 43 -39 49 -39 88 0 39 38 38 46 -13 116 -71 95 -72 86 48 230
121 144 170 146 208 9 38 -137 133 -152 240 -37 115 124 92 224 -52 224 -64 0
-85 44 -45 98 161 220 1622 1348 2246 1733 158 98 344 214 413 258 68 44 242
144 386 223 143 78 307 173 362 211 385 262 1976 922 2627 1090 68 17 220 60
337 95 611 181 1169 308 1561 355 178 22 331 45 341 51 10 6 90 16 177 22 87
6 225 23 306 37 168 29 886 39 1020 14 58 -11 111 -5 149 17 55 32 883 73
1084 54 41 -4 255 -19 475 -33z m-12383 -678 c145 -73 332 -274 384 -411 39
-102 41 -133 13 -274 -38 -190 -24 -223 82 -199 274 64 436 2 611 -231 206
-275 216 -616 29 -944 -208 -366 -739 -679 -1231 -726 l-169 -16 -40 96 c-22
52 -78 137 -124 189 -97 108 -92 141 39 228 53 35 144 120 202 190 121 143
177 156 274 64 112 -108 203 -108 322 0 189 170 193 353 12 512 -140 123 -228
106 -405 -75 -81 -82 -164 -150 -186 -150 -22 0 -80 66 -129 147 -49 81 -106
161 -126 178 -73 60 -43 144 100 282 151 146 172 227 99 369 -97 188 -377 152
-479 -62 -39 -82 -39 -93 3 -187 57 -126 43 -162 -91 -221 -59 -26 -172 -107
-251 -179 l-143 -131 -63 64 c-35 34 -63 72 -63 84 0 12 -41 41 -90 65 -101
48 -101 39 -23 379 91 395 353 722 736 918 228 117 524 135 707 41z m23339
-87 c343 -76 743 -379 917 -696 80 -145 170 -481 174 -651 l3 -75 -344 -4
-344 -3 0 135 c0 224 -108 392 -332 515 -372 205 -1002 -280 -1002 -771 0
-180 38 -249 237 -430 154 -140 214 -138 331 12 113 144 113 172 4 236 -105
62 -109 94 -23 174 36 33 98 108 139 167 95 137 146 135 254 -13 48 -65 207
-230 354 -366 238 -222 265 -256 258 -324 -6 -65 -21 -79 -92 -94 -102 -21
-256 -166 -545 -516 -213 -257 -270 -294 -335 -216 -36 44 -444 253 -629 322
-154 58 -406 291 -519 477 -179 300 -255 730 -166 943 18 44 42 126 52 181 51
275 323 618 675 850 160 105 219 129 464 186 100 24 243 12 469 -39z m-2969
-999 c0 -34 -11 -61 -25 -61 -14 0 -25 34 -25 76 0 45 10 71 25 62 14 -9 25
-43 25 -77z m-22641 -594 c70 -60 199 -151 285 -202 198 -119 202 -162 18
-251 -96 -48 -187 -125 -306 -259 -93 -105 -216 -235 -275 -290 -126 -118
-137 -195 -37 -256 38 -24 110 -81 160 -128 66 -63 105 -82 142 -70 71 23 329
419 365 560 41 160 77 157 294 -28 102 -87 222 -173 266 -191 99 -41 136 -148
65 -188 -71 -40 -495 -444 -523 -498 -27 -55 -37 -46 370 -343 148 -108 314
-209 368 -223 133 -36 127 -62 -73 -298 -95 -112 -208 -272 -252 -354 -96
-179 -155 -190 -237 -42 -53 96 -575 538 -937 794 -107 76 -255 192 -328 258
-74 67 -174 142 -224 167 -49 25 -149 103 -223 173 -112 106 -148 127 -227
127 -161 0 -196 128 -58 218 34 22 154 154 265 293 111 138 259 314 329 390
145 159 299 351 440 549 173 244 157 239 333 92z m28403 -985 c28 -44 81 -129
118 -189 38 -60 153 -201 257 -314 200 -217 212 -263 90 -328 -81 -43 -630
-767 -1006 -1326 -97 -144 -196 -285 -221 -312 -99 -112 -210 -327 -228 -446
-41 -255 -148 -242 -292 36 -46 88 -162 254 -258 370 -209 252 -213 293 -34
357 114 40 262 163 262 218 0 12 -49 83 -108 156 -60 73 -157 204 -215 290
-66 97 -130 162 -168 172 -87 21 -281 -57 -386 -158 -109 -104 -148 -93 -238
63 -36 64 -142 195 -235 292 -241 248 -251 346 -34 333 112 -7 276 28 609 131
131 40 271 80 313 89 41 9 135 43 209 75 74 33 154 59 178 59 24 0 127 32 228
71 222 86 703 243 817 266 49 11 98 44 124 84 82 130 140 133 218 11z m-29667
-3045 c4 -28 -23 -107 -59 -175 -164 -312 -238 -459 -295 -587 -34 -76 -123
-273 -198 -437 -75 -165 -145 -329 -155 -363 -11 -34 -59 -158 -107 -275 -48
-117 -97 -241 -107 -275 -11 -34 -67 -175 -124 -312 -244 -590 -589 -1733
-675 -2238 -15 -89 -44 -221 -64 -292 -20 -71 -47 -223 -60 -337 -12 -115 -46
-315 -74 -446 -82 -376 -102 -530 -128 -955 -29 -474 -38 -501 -174 -480 -91
15 -101 11 -124 -51 -45 -116 25 -239 135 -239 49 0 89 -8 90 -19 0 -10 6
-345 12 -743 16 -1120 58 -1515 260 -2450 153 -706 226 -983 381 -1438 40
-117 111 -325 157 -462 109 -324 158 -444 308 -763 69 -144 133 -291 143 -325
10 -34 45 -113 77 -175 32 -62 110 -219 173 -350 159 -328 205 -413 318 -595
121 -196 121 -280 -1 -319 -45 -15 -108 -59 -139 -97 -72 -91 -148 -70 -212
57 -319 635 -565 1151 -614 1285 -24 65 -53 124 -64 132 -67 41 -325 688 -325
815 0 50 -15 104 -34 119 -19 16 -60 99 -90 185 -31 85 -99 268 -150 406 -125
331 -201 586 -201 678 0 41 -21 141 -47 223 -74 232 -178 722 -255 1199 -43
266 -61 448 -115 1187 -14 189 -20 1023 -10 1325 42 1238 354 3068 705 4131
53 161 97 313 97 337 1 52 176 562 246 714 65 143 96 221 156 399 28 84 80
209 115 279 36 69 84 183 108 252 61 172 497 1132 561 1231 59 93 424 312 502
301 28 -4 53 -29 57 -57z m30453 -228 c29 -36 52 -81 52 -100 0 -19 84 -212
188 -429 103 -217 187 -408 187 -424 0 -16 38 -100 85 -186 132 -243 595
-1494 752 -2032 382 -1309 614 -2507 724 -3725 35 -392 58 -1912 29 -1958 -6
-10 -29 -181 -51 -381 -22 -199 -56 -440 -75 -536 -20 -97 -43 -243 -52 -325
-8 -83 -47 -285 -86 -450 -39 -165 -84 -362 -101 -438 -84 -386 -565 -1882
-677 -2103 -44 -87 -106 -228 -138 -312 -93 -249 -636 -1364 -744 -1528 -61
-93 -385 -265 -474 -252 -115 16 -82 115 267 812 322 641 541 1122 541 1185 0
16 38 104 85 195 87 168 141 313 265 716 38 123 121 388 183 587 63 199 125
408 138 463 13 55 52 212 85 350 489 1996 527 3346 155 5487 -49 282 -117 631
-152 775 -35 144 -79 324 -97 400 -72 302 -529 1715 -663 2050 -30 76 -70 188
-88 250 -51 169 -149 419 -230 588 -40 82 -100 211 -133 287 -33 76 -130 282
-216 458 -203 414 -203 419 18 576 114 80 160 80 223 0z m-29402 -15992 c16
-18 44 -106 64 -194 105 -460 82 -438 432 -407 311 29 333 25 333 -55 0 -47
-48 -91 -237 -215 -131 -85 -243 -173 -250 -196 -14 -43 54 -264 122 -395 119
-231 -21 -281 -239 -85 -301 271 -282 270 -538 27 -160 -153 -206 -172 -258
-109 -26 31 -17 78 49 262 44 123 73 245 65 271 -15 47 -176 171 -395 305
-124 76 -158 160 -78 191 23 9 160 2 304 -14 340 -40 330 -50 440 428 47 202
116 271 186 186z m27907 -8 c32 -38 50 -108 124 -490 33 -168 20 -164 394
-108 208 32 354 23 354 -21 0 -56 -68 -119 -279 -255 -284 -184 -288 -193
-183 -470 86 -229 83 -290 -12 -290 -40 0 -80 12 -89 26 -38 62 -319 274 -363
274 -26 0 -140 -74 -252 -164 -316 -253 -387 -208 -234 148 50 117 87 233 83
257 -5 25 -103 113 -218 196 -369 266 -367 327 8 302 339 -22 371 -9 434 191
28 86 58 202 68 257 30 181 91 235 165 147z m-2471 -2115 c6 -17 6 -93 0 -169
-11 -141 70 -585 207 -1125 103 -408 123 -449 351 -726 118 -143 221 -273 231
-288 9 -15 61 -49 115 -75 142 -69 136 -91 -57 -231 -95 -70 -226 -195 -290
-278 -144 -187 -188 -192 -246 -30 -29 82 -128 223 -306 431 -237 279 -275
314 -394 354 -72 24 -192 72 -268 105 -76 33 -250 99 -387 145 -138 47 -333
121 -434 164 -101 44 -215 79 -254 79 -183 0 -130 106 154 310 74 54 186 163
247 242 136 177 185 185 247 41 40 -94 73 -122 285 -239 394 -218 446 -173
295 253 -43 121 -78 235 -78 253 0 18 -23 62 -50 97 -72 91 -62 153 35 227
107 81 196 171 348 349 119 140 222 186 249 111z m-22463 -375 c115 -149 437
-419 499 -419 34 0 107 -85 107 -124 0 -22 -79 -111 -175 -197 -96 -87 -271
-266 -388 -399 -820 -934 -935 -1022 -1308 -1001 -324 18 -744 359 -1007 815
-73 128 -51 158 150 202 74 16 205 63 291 104 221 106 205 116 248 -154 29
-174 165 -285 315 -255 105 21 313 215 405 378 42 75 102 145 135 157 39 15
59 43 59 81 0 34 37 94 89 144 49 48 124 151 166 230 85 158 144 183 191 80
21 -46 45 -62 85 -56 75 10 84 79 21 167 -124 175 -11 412 117 247z m20601
-1358 c31 -63 107 -169 170 -236 155 -166 146 -186 -170 -341 -352 -173 -355
-180 -183 -432 76 -110 138 -208 138 -216 0 -9 79 -130 176 -270 97 -139 235
-349 307 -466 99 -162 155 -225 236 -270 162 -90 131 -158 -114 -251 -148 -56
-277 -145 -399 -274 -94 -100 -134 -86 -183 66 -35 106 -180 383 -257 490 -29
41 -183 288 -342 550 -168 277 -307 480 -332 485 -42 8 -342 -199 -460 -316
-83 -84 -138 -62 -179 70 -19 62 -84 173 -145 248 -121 148 -127 197 -33 244
34 17 103 51 153 76 116 57 627 393 952 625 139 99 285 187 325 195 39 9 89
43 111 77 68 104 164 81 229 -54z m-19067 64 c283 -54 654 -323 766 -555 227
-474 230 -783 13 -1214 -465 -921 -1491 -1076 -2129 -322 -351 415 -311 1087
92 1571 65 78 152 184 195 237 196 243 644 362 1063 283z m1870 -1060 c31 -34
84 -68 117 -76 33 -8 145 -55 248 -104 210 -100 198 -78 237 -435 14 -131 37
-316 50 -412 13 -97 24 -272 24 -389 1 -239 31 -309 125 -295 52 7 66 36 115
230 30 121 66 245 80 275 140 301 181 420 181 522 0 152 40 162 232 57 85 -47
237 -115 337 -152 203 -75 221 -108 117 -226 -35 -40 -91 -125 -125 -189 -33
-65 -71 -124 -84 -132 -13 -8 -31 -51 -40 -96 -23 -116 -96 -310 -181 -481
-87 -175 -382 -807 -440 -944 -23 -52 -41 -161 -41 -241 0 -207 -39 -220 -225
-74 -48 38 -116 76 -150 86 -34 9 -130 52 -212 95 l-150 79 -31 250 c-63 511
-106 954 -107 1087 -1 164 -23 207 -102 196 -43 -6 -65 -32 -82 -96 -36 -139
-180 -546 -264 -746 -42 -101 -77 -215 -77 -252 0 -37 -16 -89 -35 -115 -40
-55 -76 -42 -269 97 -71 51 -176 97 -270 118 -210 46 -243 104 -120 210 96 82
302 515 557 1163 72 186 189 460 259 609 70 149 122 281 115 292 -7 11 -1 49
12 84 32 84 123 86 199 5z m15037 -130 c8 -21 15 -67 15 -100 0 -72 91 -340
181 -535 35 -76 87 -188 115 -250 29 -62 74 -152 101 -200 27 -48 83 -161 124
-250 290 -633 380 -795 468 -848 149 -87 124 -121 -175 -242 -96 -39 -231
-116 -300 -172 -217 -176 -264 -176 -264 0 0 117 -51 247 -356 900 -103 220
-208 450 -233 512 -74 177 -297 609 -359 692 -88 118 -63 183 87 232 152 49
325 148 411 233 72 72 163 86 185 28z m-1447 -769 c185 -50 452 -178 470 -226
11 -29 -26 -97 -112 -210 -71 -92 -144 -205 -163 -250 -49 -117 -87 -120 -217
-21 -201 153 -321 143 -511 -41 -225 -221 -232 -570 -18 -905 221 -347 496
-422 722 -196 82 82 101 128 124 305 11 81 85 90 234 28 89 -37 219 -66 333
-74 232 -17 250 -61 122 -293 -217 -389 -692 -712 -1073 -729 -539 -25 -1014
295 -1206 810 -174 470 -174 815 1 1180 232 481 800 755 1294 622z m-10163
-376 c233 -74 317 -126 490 -301 357 -363 462 -814 312 -1337 -82 -283 -150
-413 -300 -573 -124 -132 -125 -142 -12 -286 107 -138 103 -194 -14 -225 -91
-23 -184 -81 -320 -197 -108 -93 -141 -73 -192 116 -57 210 -100 248 -256 227
-395 -55 -862 184 -1115 568 -272 414 -235 1093 85 1533 174 239 502 467 747
518 103 22 455 -4 575 -43z m1788 -444 c82 -15 220 -25 306 -23 190 6 208 -21
147 -208 -43 -132 -141 -869 -141 -1059 0 -59 -17 -148 -37 -197 -113 -270
114 -617 371 -566 238 48 326 199 352 607 9 144 28 333 41 419 13 86 29 326
35 534 6 208 17 385 25 392 7 7 119 0 249 -16 130 -16 303 -29 384 -29 200 0
226 -33 155 -192 -73 -164 -117 -442 -151 -944 -16 -232 -39 -450 -51 -483
-13 -32 -23 -82 -23 -110 0 -51 -126 -323 -221 -477 -247 -400 -1299 -399
-1670 2 -203 218 -222 277 -217 667 2 192 22 490 43 662 21 172 45 470 54 663
19 432 16 422 118 401 44 -9 148 -28 231 -43z m4427 -221 c3 -284 33 -639 71
-862 20 -110 48 -341 64 -513 36 -388 68 -432 246 -340 38 20 152 48 255 64
305 45 433 70 505 98 124 48 144 20 144 -210 0 -115 13 -267 30 -338 39 -168
3 -201 -192 -181 -208 21 -1153 -84 -1443 -161 -199 -53 -230 -36 -211 112 16
117 5 263 -72 994 -49 472 -151 1114 -201 1264 -38 117 -29 196 23 201 16 2
90 2 166 1 76 -2 216 13 313 32 298 59 299 59 302 -161z m-1270 57 c5 -31 -9
-81 -31 -112 -33 -48 -39 -168 -39 -832 0 -1123 17 -1394 94 -1508 78 -114 52
-171 -72 -160 -104 10 -569 9 -722 0 -144 -10 -165 57 -53 176 87 94 118 235
80 370 -16 59 -27 407 -27 898 0 748 -4 812 -53 957 -75 223 -65 230 312 223
208 -5 319 3 354 25 73 45 148 28 157 -37z"/>
<path d="M18564 37560 c-95 -94 -9 -324 109 -293 85 22 67 246 -23 302 -38 24
-55 22 -86 -9z"/>
<path d="M19485 37036 c-11 -44 -5 -74 18 -89 63 -40 110 -13 110 66 0 104
-103 123 -128 23z"/>
<path d="M21675 37800 c-34 -64 8 -150 74 -150 60 0 88 82 52 149 -35 65 -92
65 -126 1z"/>
<path d="M22042 37329 c-48 -54 -86 -564 -45 -590 55 -34 394 -17 499 25 251
100 283 443 52 552 -110 51 -464 60 -506 13z"/>
<path d="M21875 36491 c0 -74 26 -96 76 -65 28 17 30 33 10 66 -43 69 -86 69
-86 -1z"/>
<path d="M21592 36483 c-33 -32 -18 -227 18 -241 59 -23 140 54 140 134 0 88
-106 160 -158 107z"/>
<path d="M16538 36725 c-39 -121 109 -250 201 -174 53 44 46 167 -12 198 -80
43 -172 32 -189 -24z"/>
<path d="M15290 36307 c-34 -34 -12 -105 37 -120 65 -21 82 -5 62 59 -17 52
-73 86 -99 61z"/>
<path d="M15016 35079 c-77 -85 -39 -229 60 -229 106 0 160 160 78 234 -58 53
-87 52 -138 -5z"/>
<path d="M25535 36239 c-8 -20 -10 -56 -6 -81 12 -62 130 -62 141 -1 18 90
-104 163 -135 82z"/>
<path d="M28654 35569 c-52 -52 -34 -119 31 -119 49 0 90 40 90 89 0 32 -96
55 -121 30z"/>
<path d="M28185 35264 c-18 -45 10 -95 42 -75 31 19 29 111 -3 111 -14 0 -32
-16 -39 -36z"/>
<path d="M28781 35247 c-44 -29 -81 -61 -81 -72 0 -45 -207 -279 -302 -342
-150 -99 -132 -167 77 -277 246 -130 324 -111 325 82 0 55 25 190 54 300 91
339 75 404 -73 309z"/>
<path d="M27955 34843 c-36 -42 -15 -118 33 -118 47 0 63 64 28 112 -27 37
-35 38 -61 6z"/>
<path d="M12415 35835 c-19 -49 2 -85 48 -85 19 0 40 10 48 23 21 34 -12 102
-48 102 -18 0 -40 -18 -48 -40z"/>
<path d="M11685 35266 c-22 -59 -1 -128 40 -128 25 0 38 25 38 72 0 79 -54
118 -78 56z"/>
<path d="M11917 34708 c-31 -30 -18 -108 17 -108 47 0 99 66 79 99 -18 29 -71
35 -96 9z"/>
<path d="M13392 34683 c-39 -38 -14 -134 44 -172 131 -86 236 1 153 128 -39
59 -156 85 -197 44z"/>
<path d="M12551 34589 c-66 -80 31 -205 109 -141 47 39 52 105 10 147 -40 40
-82 38 -119 -6z"/>
<path d="M13533 33786 c-20 -54 32 -106 70 -68 32 32 12 107 -28 107 -15 0
-33 -18 -42 -39z"/>
<path d="M21274 34219 c-121 -82 -118 -112 13 -169 223 -95 412 -38 337 102
-64 119 -226 150 -350 67z"/>
<path d="M22275 34113 c-49 -59 33 -168 118 -158 95 11 129 79 71 144 -55 60
-145 67 -189 14z"/>
<path d="M19225 34048 c0 -36 13 -49 43 -43 66 12 73 95 9 95 -36 0 -52 -16
-52 -52z"/>
<path d="M19691 33970 c-8 -32 -15 -82 -16 -112 0 -49 -17 -56 -169 -69 -737
-66 -901 -87 -1543 -205 -359 -66 -426 -82 -900 -210 -152 -41 -382 -102 -513
-136 -291 -75 -932 -300 -1375 -483 -386 -159 -1227 -568 -1426 -693 -49 -31
-161 -92 -250 -137 -289 -145 -1043 -649 -1525 -1021 -173 -133 -381 -292
-463 -354 -488 -369 -1635 -1523 -2006 -2020 -85 -114 -216 -279 -291 -366
-74 -88 -203 -259 -286 -381 -83 -121 -241 -353 -351 -515 -110 -161 -253
-392 -317 -512 -65 -120 -171 -304 -236 -410 -65 -105 -152 -262 -194 -350
-140 -295 -300 -658 -367 -833 -36 -97 -83 -212 -103 -256 -156 -343 -361
-1005 -520 -1682 -118 -498 -253 -1407 -294 -1975 -38 -521 -38 -1780 -1
-2212 51 -595 204 -1544 320 -1987 35 -131 96 -368 137 -526 141 -543 282
-943 502 -1420 42 -92 93 -212 112 -266 32 -89 175 -370 480 -938 151 -282
467 -801 605 -992 331 -459 447 -612 574 -759 77 -89 213 -252 301 -362 88
-110 228 -269 311 -352 83 -84 302 -313 488 -510 291 -309 558 -551 885 -801
246 -189 332 -256 567 -447 320 -260 1171 -828 1241 -828 6 0 154 -88 328
-196 395 -245 1040 -580 1467 -761 397 -169 1027 -418 1054 -418 25 0 580
-174 895 -281 202 -68 710 -185 1051 -242 68 -11 231 -44 362 -72 481 -104
713 -141 1050 -167 62 -4 191 -20 288 -34 1040 -153 2863 -68 4200 195 137 27
373 73 525 102 413 78 952 216 1228 315 136 48 331 114 434 146 208 64 868
326 910 361 15 12 89 45 165 72 233 83 554 234 742 347 98 60 215 122 258 137
78 27 211 99 600 322 613 352 851 501 1015 638 68 57 179 140 248 185 68 46
170 125 225 177 55 52 198 168 319 259 868 651 1840 1669 2576 2698 333 467
402 569 579 855 93 151 194 314 224 362 30 48 79 147 110 219 31 72 91 191
133 263 84 141 272 553 345 756 24 68 91 223 148 343 56 120 103 230 103 244
0 14 10 45 22 69 13 24 39 100 58 169 29 105 50 133 134 176 121 64 135 120
51 208 l-64 68 50 174 c147 500 210 763 274 1149 27 165 62 357 76 427 32 157
123 1145 124 1338 0 78 17 182 38 233 21 50 31 104 21 119 -16 27 -49 582 -70
1208 -20 601 -179 1668 -314 2112 -27 89 -84 307 -127 483 -81 340 -246 865
-345 1105 -100 240 -143 353 -204 537 -87 263 -179 483 -224 537 -18 22 -139
251 -268 508 -129 257 -281 541 -337 630 -281 446 -282 447 -890 1262 -306
411 -698 857 -1120 1275 -649 643 -1069 1009 -1660 1450 -89 66 -196 151 -237
187 -42 37 -216 155 -388 263 -172 108 -391 249 -487 313 -97 64 -260 159
-363 211 -103 52 -216 115 -250 139 -53 38 -964 490 -1225 608 -108 49 -586
233 -887 342 -124 45 -244 97 -266 117 -23 20 -95 41 -161 47 -66 6 -264 57
-440 112 -176 56 -390 117 -477 136 -86 18 -246 58 -356 87 -110 30 -296 70
-413 89 -117 20 -364 64 -550 98 -186 34 -522 79 -748 101 -226 22 -422 48
-437 57 -15 9 -545 17 -1177 19 l-1150 2 -13 86 c-16 110 -133 142 -159 44z
m1334 -894 c76 -53 239 -155 363 -227 123 -72 318 -211 433 -308 114 -98 255
-216 312 -261 277 -221 1025 -1124 1215 -1467 23 -42 137 -222 255 -400 117
-179 234 -365 261 -413 26 -48 94 -166 151 -262 237 -405 443 -975 524 -1454
75 -441 38 -990 -106 -1558 -110 -435 -188 -485 -393 -254 -105 119 -118 145
-103 213 27 126 35 355 13 390 -38 62 -96 3 -126 -131 -68 -306 -208 -462
-277 -310 -23 51 -14 130 47 421 145 679 155 1145 34 1608 -14 55 -45 188 -68
297 -44 203 -98 290 -182 290 -122 0 -120 -79 13 -545 85 -301 108 -930 45
-1255 -20 -103 -54 -289 -75 -412 -44 -258 -111 -416 -201 -475 -153 -100
-226 43 -177 350 50 316 28 624 -47 658 -85 39 -101 -6 -122 -333 -31 -477
-88 -639 -225 -638 -129 1 -167 102 -179 475 -30 939 -87 1625 -165 2013 -14
68 -40 231 -58 362 -18 131 -45 283 -59 338 -15 55 -27 141 -27 192 -2 235
-141 641 -209 609 -16 -8 -49 -21 -73 -29 -51 -18 -62 -210 -19 -322 35 -91
117 -496 137 -675 10 -83 27 -190 39 -238 99 -397 183 -2036 124 -2431 -40
-272 -78 -396 -131 -429 -69 -43 -96 10 -112 220 -8 105 -24 198 -36 205 -42
26 -61 -97 -38 -241 38 -236 -25 -360 -132 -262 -64 58 -73 149 -103 1088 -8
256 -62 594 -102 639 -85 95 -45 189 57 135 41 -23 58 -22 73 2 26 43 2 99
-43 99 -32 0 -37 70 -34 469 2 258 -4 506 -13 551 -14 66 -6 95 39 142 l56 60
-53 86 c-42 67 -53 125 -53 276 0 105 -11 191 -23 191 -31 0 -32 376 -2 425
23 38 22 40 62 -87 19 -62 80 -43 112 35 45 108 -39 342 -119 334 -64 -7 -155
62 -155 117 1 21 29 65 64 98 80 77 70 130 -35 182 -109 55 -111 58 -92 121
15 47 21 49 46 15 48 -63 188 -81 209 -26 10 27 5 50 -13 55 -34 12 -40 131
-7 131 13 0 30 -28 38 -62 9 -35 33 -63 53 -63 56 0 45 -92 -13 -107 -80 -21
-71 -305 12 -399 125 -143 213 -77 213 160 0 145 -7 173 -56 207 -42 30 -45
39 -15 39 42 0 79 59 53 85 -9 8 -48 15 -88 15 -68 0 -72 5 -56 75 14 65 9 75
-36 75 -66 0 -68 67 -2 88 54 17 68 98 21 127 -26 16 -78 -32 -106 -100 -7
-18 -19 -16 -35 6 -16 23 -11 68 15 133 75 190 -130 472 -243 336 -59 -71 -5
-293 93 -383 86 -79 87 -81 44 -145 -41 -63 -45 -64 -104 -25 -73 48 -110 32
-110 -48 0 -135 -31 -215 -91 -230 -63 -15 -73 -35 -36 -73 12 -13 26 -91 31
-173 7 -132 1 -157 -50 -201 -56 -49 -57 -57 -30 -209 35 -191 16 -303 -50
-303 -55 0 -99 -70 -99 -158 0 -67 51 -100 115 -75 29 11 38 3 31 -31 -6 -33
-31 -47 -84 -48 -68 0 -75 -9 -82 -97 -6 -64 6 -111 34 -143 51 -56 7 -273
-55 -273 -27 0 -34 -63 -34 -304 0 -167 7 -297 16 -289 49 50 103 -34 82 -125
-12 -52 -22 -177 -22 -277 -1 -116 -10 -177 -26 -167 -14 8 -25 71 -25 138 0
215 -45 134 -63 -115 -19 -256 -8 -302 53 -215 41 58 85 52 85 -13 0 -22 23
-77 52 -124 45 -73 58 -80 104 -56 42 23 58 20 82 -12 17 -23 49 -41 72 -41
63 0 82 -82 112 -476 89 -1214 86 -1245 -158 -1364 -152 -75 -203 -68 -241 33
-79 207 -293 1037 -436 1695 -49 220 -96 312 -160 312 -114 0 -133 -169 -51
-475 27 -103 61 -261 75 -350 14 -89 59 -323 100 -520 41 -196 74 -388 74
-425 0 -37 28 -177 62 -311 67 -259 62 -318 -33 -403 -94 -85 -124 -52 -231
252 -55 158 -123 217 -180 160 -30 -30 -15 -114 85 -460 50 -177 52 -199 17
-234 -72 -72 -130 -3 -257 308 -66 163 -165 397 -219 520 -166 376 -319 809
-401 1138 -75 298 -79 338 -83 846 -5 605 -18 654 -154 578 -191 -107 -96
-1312 157 -2018 116 -321 249 -657 289 -729 80 -142 348 -734 348 -767 0 -41
-55 -41 -156 2 -69 29 -54 -29 52 -197 221 -349 269 -521 151 -535 -71 -8
-179 104 -480 495 -79 103 -195 249 -256 325 -62 76 -159 216 -216 313 -57 96
-150 242 -207 325 -205 301 -463 927 -551 1337 -54 253 -76 817 -40 1038 91
562 103 605 266 937 143 291 425 706 789 1162 402 504 856 1103 947 1249 47
77 102 139 122 139 55 0 21 -434 -57 -725 -140 -519 -148 -607 -150 -1727 -2
-1097 1 -1123 111 -1123 103 0 109 43 114 871 5 1076 7 1088 198 1954 107 484
141 1382 62 1633 -59 189 -60 224 -8 333 82 174 195 183 409 35z m225 -2576
c0 -41 -11 -75 -25 -75 -14 0 -25 34 -25 75 0 41 11 75 25 75 14 0 25 -34 25
-75z m100 -423 c0 -41 -30 -102 -50 -102 -24 0 -50 92 -31 111 23 23 81 16 81
-9z m9705 -1642 c448 -71 663 -271 349 -324 -407 -69 -771 -333 -654 -474 21
-25 18 -54 -12 -112 -50 -96 -15 -157 85 -145 60 7 65 17 65 130 0 118 4 126
122 209 67 47 202 120 300 161 212 90 257 126 278 224 29 129 188 146 291 30
82 -92 60 -229 -44 -285 -36 -20 -135 -110 -219 -202 -240 -259 -509 -950
-681 -1747 -19 -89 -64 -258 -99 -375 -36 -117 -88 -291 -115 -387 -28 -97
-72 -245 -98 -331 -27 -85 -48 -167 -48 -181 0 -84 -248 -558 -397 -758 -400
-538 -818 -857 -1410 -1078 l-245 -92 -655 -5 -655 -5 -8 63 c-10 86 110 142
406 189 125 20 277 52 339 71 62 19 159 41 216 49 56 8 152 37 212 64 60 28
135 50 165 50 106 2 279 105 306 185 15 41 45 95 67 120 22 24 33 61 25 83
-23 61 -62 44 -71 -31 -7 -62 -18 -69 -120 -76 -62 -5 -129 -24 -150 -42 -37
-33 -264 -121 -413 -160 -41 -11 -97 -32 -125 -47 -27 -15 -151 -45 -274 -68
-124 -23 -319 -64 -432 -91 -222 -54 -291 -47 -332 31 -66 122 -45 137 576
388 612 249 854 383 1434 797 397 282 996 901 1131 1166 35 70 106 191 158
268 206 310 252 390 326 566 42 101 79 238 82 304 6 118 5 121 -68 121 -63 0
-77 -13 -99 -88 -14 -48 -50 -132 -81 -187 -32 -55 -84 -157 -116 -225 -33
-69 -157 -270 -276 -446 -119 -176 -216 -326 -216 -333 0 -17 -197 -250 -355
-421 -106 -114 -187 -182 -590 -490 -356 -273 -825 -543 -1146 -661 -187 -69
-185 -68 -465 -200 -259 -121 -329 -114 -339 35 -6 74 -25 124 -60 152 -44 35
-47 50 -22 96 16 30 38 55 50 55 41 0 177 145 177 188 0 45 6 45 -269 -2 -102
-17 -106 -15 -106 47 0 66 87 143 364 321 87 56 226 159 647 478 207 156 576
520 626 618 38 73 172 214 444 469 107 100 194 197 194 216 0 19 17 48 39 66
21 18 32 49 24 69 -17 45 54 130 110 131 87 1 202 142 202 247 0 115 -24 137
-123 115 -143 -31 -252 -161 -252 -301 -1 -151 -16 -178 -113 -201 -82 -19
-116 -47 -384 -314 -102 -102 -199 -218 -217 -260 -83 -198 -809 -799 -1382
-1146 l-284 -172 -66 53 c-37 29 -89 63 -118 76 -177 77 -147 140 246 521 451
438 538 526 668 669 62 68 201 203 308 300 166 148 200 191 220 284 13 60 19
114 14 119 -25 25 -164 -54 -283 -161 -190 -171 -397 -335 -834 -661 -213
-160 -449 -341 -525 -404 -192 -160 -243 -152 -298 48 -36 131 -41 137 -208
247 -126 83 -144 105 -144 175 0 194 746 1099 1127 1368 81 57 157 135 181
186 45 94 55 186 21 186 -59 0 -199 -63 -254 -114 -34 -32 -147 -134 -250
-226 -102 -92 -232 -218 -287 -280 -55 -62 -187 -207 -293 -323 -105 -115
-273 -317 -373 -448 -253 -334 -346 -365 -347 -115 0 126 -17 131 -112 31 -94
-97 -148 -95 -255 12 -81 81 -86 95 -70 193 75 439 350 825 877 1229 645 493
1501 810 2398 887 189 16 1177 18 1300 3 41 -5 136 -1 212 9 105 15 149 10
188 -18 79 -59 24 -114 -253 -252 -326 -164 -577 -321 -960 -602 -172 -127
-376 -270 -453 -319 -222 -141 -339 -323 -246 -380 35 -22 238 75 360 172 55
43 119 90 143 104 98 56 420 252 596 363 103 66 283 172 400 238 117 65 297
172 400 236 103 64 229 137 279 160 50 24 159 102 243 175 225 195 394 224
858 150z m-15480 -279 c62 -16 214 -48 338 -71 415 -78 792 -218 1150 -430
302 -178 403 -251 564 -408 91 -88 223 -211 294 -274 93 -82 129 -132 129
-180 0 -217 409 -1043 717 -1447 250 -329 808 -1263 808 -1353 0 -58 -58 -79
-122 -45 -51 28 -277 306 -279 344 -1 24 -115 158 -135 158 -30 0 -11 -56 54
-157 140 -218 169 -288 160 -387 -6 -68 -81 -24 -173 100 -52 72 -179 243
-282 380 -102 137 -202 274 -223 304 -21 30 -88 120 -150 201 -62 81 -139 186
-172 234 -334 488 -1248 1362 -1735 1659 -94 57 -218 134 -275 171 -378 240
-666 355 -781 311 -108 -42 113 -245 407 -375 421 -186 1360 -930 1673 -1326
53 -66 176 -216 275 -332 99 -117 211 -259 250 -317 38 -57 132 -181 208 -275
418 -522 525 -675 525 -752 0 -103 -82 -79 -190 55 -95 118 -575 589 -701 688
-73 58 -153 33 -139 -43 4 -23 148 -179 319 -347 171 -167 311 -319 311 -337
0 -94 -100 -42 -524 274 -247 183 -503 367 -569 407 -270 166 -1038 684 -1207
814 -116 89 -202 108 -270 60 -66 -46 -72 -130 -11 -153 24 -9 87 -52 140 -97
53 -45 132 -99 175 -119 99 -47 632 -441 1056 -778 217 -174 733 -538 1248
-880 504 -336 591 -407 582 -477 -5 -41 -27 -72 -57 -80 -38 -10 -50 -35 -50
-101 0 -128 -73 -127 -237 4 -73 58 -164 123 -203 145 -539 298 -797 458
-1073 662 -131 97 -288 210 -351 251 -161 108 -300 212 -386 291 -42 38 -154
110 -250 160 -97 50 -204 117 -238 150 -78 73 -622 437 -654 437 -13 0 -54 21
-91 47 -199 137 -320 203 -371 203 -31 0 -96 34 -143 75 -47 41 -111 75 -143
75 -70 0 -173 -92 -173 -154 0 -66 189 -179 267 -160 46 12 85 -5 164 -73 57
-49 146 -100 198 -114 51 -14 127 -53 167 -87 41 -34 80 -62 87 -62 7 0 101
-60 209 -134 206 -142 386 -241 436 -241 16 0 68 -39 114 -88 47 -48 144 -125
216 -170 72 -46 147 -100 167 -119 21 -20 137 -102 259 -184 121 -81 252 -177
290 -212 148 -137 577 -421 927 -614 251 -139 338 -215 315 -275 -30 -78 -97
-67 -361 56 -147 68 -386 167 -530 219 -144 52 -332 121 -417 153 -85 32 -166
59 -181 59 -23 0 -480 144 -953 300 -334 111 -1262 520 -1439 635 -252 163
-560 379 -560 392 0 9 35 16 79 18 129 3 164 58 120 186 -56 163 -145 153
-193 -23 -45 -159 -76 -154 -282 45 -75 74 -175 165 -220 203 -80 66 -98 142
-39 162 16 5 55 -20 88 -54 68 -72 127 -81 172 -26 38 46 116 48 143 4 11 -18
81 -47 157 -63 161 -36 195 -59 272 -185 67 -111 110 -122 99 -26 -6 49 4 71
35 77 34 7 44 -8 44 -69 0 -58 15 -84 63 -106 35 -16 70 -55 78 -87 32 -127
184 -119 184 9 0 53 61 38 125 -29 32 -35 85 -63 117 -63 32 0 81 -14 108 -31
37 -23 56 -23 78 -1 23 23 0 57 -100 146 -101 91 -123 124 -101 150 38 47 5
98 -40 61 -25 -22 -41 -12 -66 42 -19 38 -71 92 -117 120 -213 129 -237 164
-232 343 l5 164 -95 17 c-52 9 -142 23 -201 30 -71 10 -122 34 -154 74 -54 70
-146 78 -189 18 -18 -24 -48 -35 -71 -26 -44 17 -142 193 -142 255 0 70 -67
39 -138 -63 -78 -112 -61 -177 34 -126 78 42 104 33 104 -35 0 -35 -11 -63
-23 -63 -13 0 -49 -45 -79 -99 -33 -59 -85 -109 -127 -124 -60 -21 -71 -38
-71 -113 0 -125 -132 -105 -155 24 -7 43 -24 48 -140 41 -174 -12 -250 -78
-231 -204 18 -115 105 -134 179 -39 64 81 74 80 169 -9 95 -88 105 -177 20
-177 -31 0 -71 14 -87 30 -24 24 -42 19 -86 -24 -44 -45 -48 -61 -23 -87 26
-25 37 -23 57 12 33 58 63 56 80 -7 10 -41 26 -48 78 -35 52 13 80 0 146 -68
44 -47 148 -135 231 -196 82 -61 192 -148 243 -193 52 -45 106 -82 121 -82 14
0 84 -46 156 -102 159 -125 487 -330 655 -409 742 -349 806 -373 1587 -613
144 -44 347 -107 450 -139 103 -33 238 -72 300 -88 222 -57 353 -126 345 -184
-9 -64 -17 -64 -482 9 -303 47 -425 53 -900 44 -598 -11 -716 -31 -1143 -199
l-192 -75 -270 144 c-654 350 -1139 821 -1722 1675 -359 525 -521 807 -948
1650 -402 792 -488 915 -920 1304 -245 220 -196 351 170 456 110 32 228 69
262 82 714 285 1726 489 2425 489 34 0 113 10 175 23 167 33 1489 25 1625 -11z
m5702 -81 c31 0 48 -17 48 -49 0 -61 -40 -88 -59 -38 -8 20 -43 37 -78 37 -62
0 -80 24 -46 59 10 10 33 12 52 4 20 -7 57 -13 83 -13z m1684 -1843 c83 -37
183 -90 222 -118 69 -50 71 -50 150 -3 291 172 349 188 484 138 92 -35 269
-209 347 -341 44 -75 87 -112 155 -134 57 -19 135 -78 202 -152 120 -136 173
-148 354 -84 133 46 401 48 507 2 162 -69 362 -365 403 -596 41 -226 161 -396
339 -479 250 -116 305 -204 326 -516 14 -209 17 -217 130 -356 l116 -142 -14
-334 c-13 -302 -9 -346 41 -480 74 -196 57 -267 -125 -547 -163 -251 -172
-296 -110 -532 49 -189 47 -361 -7 -513 -42 -121 -74 -156 -320 -356 -50 -40
-122 -138 -160 -217 -145 -299 -212 -352 -488 -385 -87 -11 -209 -49 -288 -90
-76 -40 -153 -72 -172 -72 -18 0 -88 -19 -153 -42 -145 -52 -242 -27 -490 122
-200 121 -262 120 -456 -7 -574 -372 -742 -384 -1101 -77 -199 171 -198 170
-274 85 -56 -63 -107 -84 -321 -130 -280 -61 -358 -54 -358 34 0 69 47 114
237 228 171 103 227 108 292 25 28 -35 66 -63 85 -63 52 0 45 109 -10 159 -26
23 -77 120 -114 215 -79 200 -102 224 -232 241 -182 25 -208 36 -331 145 -95
85 -143 110 -210 110 -120 0 -299 85 -360 171 -45 63 -332 648 -332 676 0 19
-131 190 -230 301 -105 117 -115 171 -54 289 79 154 181 258 313 319 194 89
229 174 84 199 -97 17 -107 77 -27 163 64 70 79 128 45 175 -35 47 -206 164
-293 201 -132 55 -146 49 -127 -58 48 -281 51 -268 -175 -806 -37 -89 -83
-264 -102 -387 -48 -329 -58 -361 -115 -391 -94 -50 -119 27 -119 364 0 483
80 853 297 1372 57 136 103 275 103 310 0 35 30 130 67 213 l67 149 -46 166
c-133 485 -107 644 146 892 98 96 253 217 343 269 91 52 219 151 284 219 131
137 223 160 299 76 106 -117 166 -85 383 205 199 266 536 332 893 175z m-8511
-1293 c0 -76 -35 -100 -75 -52 -37 46 -15 113 37 113 24 0 38 -23 38 -61z
m316 -244 c8 -14 -1 -41 -21 -61 -31 -31 -42 -29 -80 14 -25 27 -38 60 -30 73
17 28 109 10 131 -26z m13937 -2419 c511 -80 887 -223 1410 -534 244 -146 630
-441 765 -584 62 -66 151 -150 199 -186 435 -333 1245 -1341 1573 -1959 58
-110 126 -234 150 -275 24 -42 109 -255 188 -475 79 -220 176 -458 217 -530
143 -254 44 -422 -206 -348 -283 85 -504 44 -1074 -197 -349 -148 -816 -320
-1175 -434 -867 -274 -2213 -381 -2903 -232 -417 91 -563 140 -939 320 -395
189 -752 504 -1058 933 -147 205 -324 413 -808 950 -55 62 -189 204 -297 316
-196 204 -247 316 -159 349 52 20 114 -20 374 -247 271 -236 445 -368 486
-368 79 0 -4 110 -291 387 -188 181 -231 236 -225 287 14 116 84 82 398 -187
170 -147 360 -301 421 -344 62 -43 208 -155 325 -248 181 -145 466 -334 840
-557 147 -89 568 -313 585 -313 10 0 120 -44 245 -99 267 -115 666 -241 844
-266 68 -9 151 -27 183 -39 32 -12 173 -28 313 -35 139 -7 274 -19 298 -27 75
-22 172 59 163 135 -8 70 -63 94 -270 116 -556 61 -914 142 -1312 298 -442
172 -717 311 -1147 576 -305 188 -1273 936 -1317 1018 -63 118 49 157 214 73
109 -56 169 -67 104 -19 -24 18 -46 66 -49 107 -8 108 87 112 258 12 232 -137
664 -309 937 -373 117 -28 934 -389 1055 -466 30 -20 76 -36 101 -36 25 0 59
-13 76 -30 36 -36 46 -27 68 59 27 110 -121 228 -500 394 -485 213 -674 288
-950 378 -138 44 -262 89 -275 99 -14 10 -93 43 -175 74 -183 67 -213 90 -213
167 0 113 -17 114 888 -57 607 -115 840 -182 1654 -479 384 -140 383 -139 383
-252 0 -52 7 -101 15 -110 31 -31 85 15 85 72 0 132 97 114 575 -109 103 -48
244 -104 313 -124 232 -68 710 -287 1562 -715 740 -372 780 -404 450 -366
-473 56 -545 58 -611 15 -78 -51 -81 -93 -11 -156 46 -41 95 -48 381 -50 381
-3 466 17 466 109 0 62 3 63 141 48 78 -8 174 -8 213 0 154 31 42 189 -203
287 -76 30 -370 171 -653 313 -283 142 -527 258 -542 258 -14 0 -86 30 -160
66 -73 37 -195 97 -271 135 -76 38 -273 121 -437 186 -165 65 -334 134 -375
154 -119 59 -466 199 -575 234 -55 17 -179 62 -275 100 -498 196 -853 328
-1100 407 -152 48 -433 140 -625 203 -193 64 -394 128 -446 141 -447 117 -582
429 -168 390 208 -20 1147 -267 1396 -368 144 -58 216 -1 141 114 -54 81 -167
139 -411 212 -555 164 -691 214 -762 278 -42 38 -117 85 -167 106 -112 46
-144 125 -80 197 44 49 65 51 397 37 379 -15 819 -69 1037 -128 76 -20 227
-59 338 -86 394 -97 925 -310 1230 -492 159 -95 210 -149 191 -199 -8 -20 15
-38 64 -49 100 -22 97 -44 -11 -96 -118 -56 -137 -53 -137 21 0 46 -13 62 -52
62 -63 0 -151 45 -190 98 -16 22 -38 31 -48 20 -11 -10 -6 -32 10 -48 62 -62
35 -120 -55 -120 -72 0 -89 11 -111 75 -38 108 -123 104 -134 -6 -10 -108 -75
-107 -107 2 -22 75 -31 82 -98 68 -50 -10 -88 -1 -120 28 -51 46 -310 70 -334
31 -8 -13 -35 -23 -61 -23 -26 0 -53 -10 -61 -23 -24 -39 14 -102 62 -102 26
0 77 -28 113 -62 37 -34 149 -101 248 -148 100 -47 188 -104 196 -125 19 -49
117 -53 117 -5 0 19 -17 41 -37 49 -49 19 -49 66 -1 66 20 0 48 -22 63 -50 15
-27 44 -50 65 -50 32 0 177 -63 207 -90 6 -5 -3 -25 -19 -44 -45 -54 100 -100
164 -52 66 50 105 44 122 -20 23 -82 537 -337 567 -282 32 57 92 46 118 -21
25 -67 139 -116 267 -116 54 0 100 -18 127 -50 24 -27 56 -50 72 -50 16 0 35
23 42 50 7 28 27 50 43 50 16 0 36 -22 43 -50 11 -44 57 -73 57 -37 0 35 -104
212 -124 212 -12 0 -26 31 -31 69 -5 50 -23 71 -65 77 -85 12 -51 67 39 63 59
-3 82 11 106 63 l30 65 47 -58 c57 -70 81 -34 69 100 -8 73 -17 83 -73 77 -81
-8 -120 67 -104 200 7 59 1 94 -16 94 -16 0 -28 -22 -28 -49 0 -26 -12 -55
-27 -64 -39 -25 -123 62 -123 129 0 66 -108 134 -211 134 -43 0 -64 14 -64 42
0 50 -71 133 -113 133 -17 0 -50 25 -72 56 -31 41 -46 47 -56 24 -66 -155
-209 -191 -209 -54 0 54 -19 80 -85 116 -337 181 -594 308 -690 341 -62 21
-223 84 -358 139 -496 204 -1064 317 -1756 350 -220 10 -414 27 -431 37 -60
38 -35 165 37 193 94 35 704 33 1030 -4 149 -17 290 -24 312 -15 48 18 55 125
10 161 -52 40 -463 80 -744 71 -437 -13 -654 65 -615 220 23 92 116 127 453
172 409 54 874 52 1240 -6z m-11540 -50 c68 -13 203 -36 300 -50 318 -49 1757
-462 1881 -541 135 -87 37 -248 -115 -188 -82 33 -790 177 -979 199 -266 32
-562 21 -562 -21 0 -27 36 -41 125 -51 68 -7 147 -25 175 -40 27 -15 100 -34
162 -43 62 -9 203 -34 313 -55 110 -21 271 -48 359 -60 88 -12 176 -39 197
-59 60 -60 -46 -102 -204 -80 -387 52 -1663 13 -1771 -53 -11 -7 -73 -21 -138
-33 -570 -100 -1133 -286 -1543 -510 -42 -22 -89 -41 -105 -41 -44 0 -161
-151 -153 -197 21 -108 127 -91 458 72 176 87 394 180 485 206 90 25 198 56
240 68 635 182 1122 244 2092 266 583 14 655 3 640 -98 -8 -58 -16 -61 -407
-161 -110 -28 -324 -92 -475 -143 -152 -51 -337 -110 -413 -130 -154 -43 -387
-148 -462 -211 -28 -23 -84 -47 -125 -55 -197 -37 -291 -63 -343 -97 -32 -20
-91 -45 -132 -55 -203 -49 -312 -194 -222 -294 63 -69 139 -56 300 52 150 101
197 108 171 26 -39 -124 122 -204 196 -97 44 61 28 137 -37 183 -37 26 -40 38
-15 58 62 50 192 107 244 107 28 0 95 22 147 48 201 103 1049 345 1491 425
151 28 336 69 412 91 287 86 361 65 313 -87 -15 -46 -339 -202 -420 -202 -86
0 -1456 -504 -1830 -674 -335 -151 -763 -365 -875 -437 -69 -44 -202 -113
-296 -152 -143 -59 -179 -87 -220 -169 -35 -67 -62 -93 -88 -83 -21 8 -43 15
-49 15 -23 0 -8 125 26 206 35 83 34 90 -23 143 -33 31 -67 100 -76 154 -13
75 -30 101 -77 112 -112 28 -66 143 58 146 39 1 70 29 101 89 34 69 61 89 125
95 108 11 106 -36 -6 -145 -69 -67 -88 -104 -88 -177 0 -193 164 -256 267
-102 120 178 137 276 68 376 -30 42 -33 65 -13 85 15 15 28 51 28 79 0 59 234
283 319 305 65 17 63 12 32 95 -33 86 -59 81 -114 -21 -43 -79 -56 -87 -182
-94 -93 -6 -140 2 -148 23 -13 32 -136 43 -164 15 -29 -29 30 -103 95 -119 85
-22 55 -65 -46 -65 -53 0 -91 17 -111 50 -44 70 -122 62 -174 -19 -57 -90 -74
-101 -143 -87 -90 17 -100 -58 -15 -118 86 -62 141 -65 172 -10 14 25 39 36
63 26 52 -20 53 -67 2 -67 -21 0 -57 -34 -81 -75 -51 -89 -70 -92 -129 -20
-33 41 -70 55 -142 53 -79 -2 -86 1 -40 19 87 33 64 102 -44 135 -34 10 -79
33 -100 50 -48 40 -145 63 -190 46 -60 -23 -38 -58 36 -58 41 0 92 -23 119
-52 46 -52 46 -53 -1 -87 -55 -41 -20 -161 47 -161 73 0 125 -200 62 -238 -14
-9 -36 -44 -49 -77 -14 -36 -43 -60 -73 -60 -61 0 -66 32 -12 76 27 23 33 55
22 109 -62 298 -354 264 -319 -37 8 -68 10 -123 3 -123 -56 0 -179 94 -200
153 -38 109 -170 106 -170 -4 0 -43 16 -82 36 -89 46 -18 123 -134 102 -155
-9 -9 -25 -1 -37 18 -23 38 -186 101 -262 102 -58 0 -139 -69 -139 -119 0 -51
-97 -181 -135 -181 -40 0 -240 -217 -240 -260 0 -18 -23 -59 -51 -91 -29 -34
-44 -75 -35 -98 33 -77 23 -114 -33 -121 -31 -5 -56 -19 -56 -33 0 -45 81 -54
147 -16 36 20 108 45 159 54 101 19 121 49 50 78 -30 12 5 28 114 51 94 20
187 59 233 97 42 35 99 64 128 64 29 0 73 19 98 41 41 37 46 37 46 2 0 -21
-14 -43 -31 -49 -18 -6 -3 -29 38 -55 87 -57 143 -35 143 57 0 94 56 145 100
92 17 -21 69 -38 116 -38 47 0 106 -14 133 -30 39 -25 57 -23 95 12 26 23 79
39 121 36 71 -5 74 -10 51 -70 -22 -60 -33 -64 -145 -53 -74 7 -121 1 -121
-14 0 -14 -48 -51 -106 -81 -278 -144 -590 -313 -669 -362 -48 -30 -211 -108
-362 -174 -805 -350 -1400 -656 -1644 -845 -101 -78 -132 -194 -53 -194 84 0
492 181 1197 531 398 198 764 375 812 394 48 18 101 44 118 56 16 13 106 61
200 107 93 46 198 100 232 119 98 56 280 135 363 159 54 16 93 57 144 152 72
133 107 146 163 56 27 -43 20 -58 -51 -123 -45 -41 -90 -75 -100 -75 -28 -1
-23 -96 6 -113 53 -33 21 -63 -69 -63 -116 -1 -150 -22 -146 -93 2 -45 -33
-74 -185 -152 -136 -69 -190 -110 -195 -150 -7 -42 4 -55 43 -55 30 0 52 -16
52 -37 0 -21 -17 -38 -38 -38 -21 0 -45 17 -53 38 -34 87 -209 10 -209 -92 0
-46 -13 -71 -37 -71 -21 0 -38 -16 -38 -36 0 -19 -14 -50 -31 -69 -62 -66
-122 -213 -130 -316 -11 -154 72 -207 324 -208 181 -1 187 -3 187 -62 0 -82
60 -99 123 -36 65 65 118 66 158 2 17 -27 50 -50 72 -50 23 0 47 23 54 50 16
59 74 65 127 13 56 -56 125 -49 109 11 -7 27 3 62 22 78 19 16 35 42 36 57 2
48 169 222 197 204 55 -33 25 -105 -60 -145 -150 -72 -120 -318 38 -318 90 0
159 80 142 166 -14 75 24 209 60 209 12 0 41 -38 64 -85 37 -79 47 -85 130
-73 53 8 112 38 141 73 28 33 77 60 108 60 30 0 82 17 113 38 32 20 168 77
302 125 279 99 315 118 824 419 328 194 496 310 1000 688 232 174 631 545 901
838 199 216 285 292 329 292 94 0 78 -106 -35 -232 -116 -129 -180 -229 -180
-280 0 -94 147 17 242 183 146 253 208 329 272 329 96 0 78 -101 -74 -412 -74
-151 -176 -365 -228 -475 -254 -545 -793 -1173 -1274 -1486 -719 -468 -1234
-657 -2188 -805 -325 -51 -1202 -65 -1400 -23 -62 13 -197 36 -300 49 -406 54
-773 158 -1350 381 -390 150 -870 186 -1200 90 -223 -65 -400 38 -400 234 0
200 469 819 971 1283 60 55 144 151 186 213 147 218 808 857 1126 1090 179
131 441 311 453 311 26 0 324 185 367 228 56 56 63 193 11 213 -43 16 -336
-128 -494 -243 -59 -42 -259 -177 -445 -297 -346 -226 -890 -733 -1181 -1101
-76 -96 -130 -140 -177 -145 -90 -11 -87 18 30 313 53 135 128 346 166 470
215 700 372 1071 593 1395 111 164 570 634 750 767 254 189 782 427 1194 539
185 50 301 71 663 122 125 17 991 -9 1125 -35z m3554 -597 c97 -219 125 -284
169 -390 22 -55 84 -156 137 -225 53 -70 109 -152 125 -183 18 -36 52 -56 93
-56 84 0 230 -70 259 -124 41 -78 -1 -147 -131 -212 -159 -79 -209 -58 -233
99 -20 131 -19 131 -116 50 -98 -83 -97 -83 -226 68 -153 180 -173 225 -154
343 l16 100 -82 -41 c-96 -47 -117 -31 -172 137 -29 86 -26 127 22 333 80 345
172 377 293 101z m1107 -1106 c137 -29 190 -86 142 -150 -64 -86 -511 -302
-565 -273 -72 38 -65 73 49 240 79 118 165 191 243 209 2 0 61 -11 131 -26z
m8151 -422 c0 -67 -47 -89 -93 -44 -45 46 -23 93 44 93 32 0 49 -17 49 -49z
m-10560 -37 c8 -19 2 -57 -12 -84 -27 -50 -439 -289 -1043 -606 -405 -213
-485 -279 -485 -403 0 -118 77 -102 328 65 60 40 245 142 410 226 165 84 361
193 437 242 76 48 216 137 313 197 96 59 203 133 237 162 111 97 200 85 200
-27 0 -73 -1092 -1098 -1625 -1526 -295 -238 -1077 -685 -1197 -685 -15 0 -70
-22 -121 -50 -52 -27 -125 -50 -163 -50 -38 0 -69 -10 -69 -22 0 -12 -34 -36
-75 -53 -65 -27 -75 -44 -75 -128 0 -151 -78 -134 -124 26 -17 59 -10 82 45
136 37 35 126 124 200 197 73 72 150 128 171 124 46 -10 133 64 133 112 0 19
-28 45 -62 58 -81 31 -81 75 -1 75 63 0 162 33 446 147 63 26 73 23 85 -22 7
-27 22 -50 33 -50 38 0 54 52 26 85 -35 42 -11 109 51 142 34 18 43 42 33 84
-19 76 8 91 120 65 94 -21 211 27 181 74 -7 12 9 43 36 68 32 29 42 58 29 79
-15 23 -26 25 -38 6 -9 -16 -44 -28 -78 -28 -91 0 -81 88 14 121 41 15 75 38
75 52 0 31 -131 102 -187 102 -22 0 -68 19 -103 41 -60 40 -63 39 -77 -11 -7
-30 -35 -60 -61 -68 -26 -9 -47 -26 -47 -39 0 -38 -75 -26 -91 14 -16 42 -62
25 -57 -20 12 -96 -64 -132 -196 -94 -69 20 -79 17 -86 -31 -6 -45 -22 -53
-89 -48 -73 6 -84 -2 -97 -69 -18 -88 -7 -85 -134 -34 -94 37 -105 37 -147 -1
-43 -39 -49 -38 -88 22 -42 64 -147 87 -177 38 -21 -33 -206 -32 -226 1 -25
40 37 99 105 99 73 0 179 53 571 285 165 98 356 202 425 231 657 279 899 371
1325 505 220 69 437 133 483 142 46 9 158 49 250 88 190 80 250 89 269 38z
m11060 -51 c-32 -35 -69 -63 -81 -63 -37 0 66 123 104 124 24 1 17 -19 -23
-61z m-655 -59 c7 -23 -10 -30 -59 -25 -38 5 -75 23 -81 42 -7 23 10 30 59 25
38 -5 75 -23 81 -42z m-14194 -603 c-15 -28 -49 -51 -75 -51 -111 0 -94 167
18 180 78 9 102 -44 57 -129z m15519 -7 c7 -36 -5 -41 -74 -29 -128 22 -151
32 -133 61 28 44 198 18 207 -32z m-16698 -17 c40 -25 16 -77 -36 -77 -20 0
-36 23 -36 50 0 54 18 61 72 27z m753 -54 c0 -43 -13 -50 -81 -43 -122 11
-129 95 -8 95 73 0 89 -9 89 -52z m5646 -158 c4 -37 -15 -126 -42 -198 -83
-221 -196 -684 -171 -708 25 -25 92 42 92 92 0 64 193 647 227 689 16 19 44
35 63 35 69 0 65 -123 -11 -380 -42 -142 -84 -319 -92 -395 -9 -76 -33 -190
-53 -254 -20 -64 -47 -194 -59 -288 -12 -94 -45 -317 -73 -495 -86 -543 -62
-1411 47 -1699 14 -37 26 -98 26 -136 0 -86 99 -384 135 -409 41 -27 160 -23
178 7 16 26 -14 189 -77 412 -154 546 -178 1262 -63 1887 29 158 70 383 92
500 22 117 49 272 60 345 54 339 183 809 231 839 92 59 103 -5 71 -426 -49
-641 -10 -1204 89 -1286 65 -54 84 98 84 656 0 561 31 875 91 925 61 51 103 5
120 -132 9 -74 27 -190 40 -258 13 -69 35 -249 50 -400 15 -152 37 -377 49
-500 35 -358 119 -872 200 -1212 41 -172 92 -398 114 -501 22 -103 51 -227 65
-275 14 -48 41 -144 59 -212 47 -173 111 -346 139 -374 13 -13 23 -41 24 -63
0 -21 33 -111 73 -200 51 -115 66 -174 49 -205 -54 -100 18 -184 93 -108 43
42 42 42 94 22 74 -28 48 -134 -41 -171 -74 -31 -86 -29 -156 26 -189 149
-238 196 -238 224 0 17 -19 38 -42 47 -31 12 -34 23 -12 45 62 62 35 124 -45
107 -72 -16 -76 -12 -91 83 -10 65 -31 104 -59 111 -28 7 -49 46 -60 112 -13
82 -30 106 -94 132 l-79 33 54 43 c70 57 67 125 -9 208 -35 37 -63 85 -63 106
0 20 -18 55 -39 77 -23 22 -32 55 -21 79 21 50 20 86 -10 224 -33 151 -71 182
-128 107 -60 -79 -85 -35 -63 110 10 71 29 112 51 112 19 0 35 17 35 38 0 20
-22 37 -50 37 -27 0 -50 -11 -50 -25 0 -14 -16 -25 -35 -25 -52 0 -121 122
-105 185 7 31 2 98 -13 150 -20 75 -18 103 10 136 56 64 71 165 33 218 -55 74
-115 6 -115 -130 0 -75 -12 -115 -37 -125 -49 -19 -48 -156 0 -220 48 -63 47
-137 0 -155 -41 -15 -54 -171 -17 -194 12 -7 29 -146 39 -308 10 -172 33 -325
54 -367 20 -40 36 -83 36 -96 0 -12 34 -57 75 -98 81 -80 79 -121 -5 -121 -29
0 -66 -20 -84 -44 -45 -61 -76 -18 -38 53 37 68 29 145 -16 160 -79 26 -90
-110 -25 -311 46 -142 56 -208 38 -241 -17 -34 -13 -58 16 -90 38 -43 55 -228
23 -260 -9 -9 -31 3 -48 27 -29 40 -40 35 -121 -56 -48 -56 -88 -115 -89 -132
-1 -17 -2 -39 -3 -49 -1 -10 10 -22 25 -27 15 -5 27 14 27 41 0 67 37 88 99
54 58 -31 67 -95 16 -115 -27 -11 -24 -32 19 -111 74 -136 116 -129 109 20 -3
65 6 122 20 126 44 12 42 -120 -3 -246 -49 -135 -35 -176 43 -128 45 28 60 22
136 -59 48 -50 86 -104 86 -121 0 -16 39 -51 88 -77 48 -26 87 -57 87 -69 0
-12 20 -29 44 -37 24 -9 87 -59 139 -112 66 -67 118 -96 167 -96 54 0 73 -13
80 -55 22 -156 445 -71 445 89 0 20 19 70 42 110 41 71 33 156 -14 156 -14 0
-28 -25 -33 -56 -4 -31 -27 -60 -51 -64 -61 -12 -58 82 6 163 28 35 50 79 50
98 0 19 25 34 56 35 52 1 169 139 169 200 0 75 306 89 394 18 47 -38 37 -94
-17 -94 -87 0 -127 -30 -127 -94 0 -131 133 -198 238 -121 44 32 45 41 12 106
-19 39 -39 80 -44 90 -5 11 45 19 110 19 93 0 112 -7 89 -30 -16 -16 -30 -61
-30 -98 0 -94 104 -194 129 -124 17 46 146 61 146 17 0 -22 -19 -40 -42 -40
-63 0 -232 -84 -232 -116 -1 -15 16 -42 37 -59 20 -17 38 -61 39 -97 1 -65 1
-65 24 -7 35 87 110 61 116 -41 2 -55 28 -104 81 -153 63 -59 77 -91 77 -182
0 -105 6 -113 139 -203 132 -89 139 -91 132 -37 -6 40 -28 60 -73 65 -100 12
-89 260 17 351 48 41 69 81 64 119 -4 32 6 82 22 112 16 30 32 78 35 107 4 30
15 123 25 208 20 167 2 267 -44 251 -19 -6 -34 -104 -42 -270 -15 -303 -59
-350 -69 -73 -4 117 -23 220 -50 272 -33 65 -36 88 -12 96 42 15 39 72 -9 145
-56 86 -85 77 -85 -25 0 -62 -11 -88 -37 -88 -26 0 -38 25 -38 79 0 44 -17 98
-37 121 -21 23 -57 118 -80 211 -39 159 -39 171 0 193 23 13 42 34 42 47 0 39
-75 27 -91 -13 -31 -82 -151 -22 -193 95 -26 74 9 167 62 167 47 0 97 85 97
164 0 55 -127 77 -163 27 -40 -54 -53 -52 -71 14 -20 79 26 126 90 92 38 -21
59 -18 89 12 35 35 29 41 -66 56 -136 22 -129 105 15 182 66 35 75 131 16 180
-34 28 -46 24 -84 -26 -29 -38 -59 -53 -85 -43 -61 23 -50 81 28 140 62 47 65
54 25 78 -25 15 -44 57 -44 97 0 39 -16 84 -34 99 -19 16 -41 61 -49 100 -9
44 -34 77 -66 85 -46 12 -50 26 -36 116 13 82 9 102 -22 102 -21 0 -43 -8 -47
-19 -5 -10 -78 -51 -163 -91 -146 -68 -157 -70 -197 -29 -49 48 -93 11 -67
-56 8 -21 -6 -52 -31 -70 -42 -31 -42 -37 -4 -96 23 -34 41 -87 41 -117 0 -31
16 -73 36 -95 27 -31 30 -66 13 -158 -30 -162 2 -244 95 -244 39 0 85 -13 101
-30 42 -42 37 -162 -7 -179 -28 -11 -38 -54 -38 -165 l0 -151 75 0 c63 0 75
-10 75 -62 0 -92 -7 -101 -66 -94 -40 5 -58 -10 -70 -59 -21 -84 -87 -154
-110 -116 -9 15 -48 35 -86 44 -58 15 -68 30 -68 105 0 48 -16 117 -36 153
-122 226 -222 501 -278 767 -176 830 -218 1041 -259 1312 -26 172 -54 442 -63
600 -9 158 -26 378 -38 488 -72 649 -56 831 69 764 30 -15 61 -59 69 -96 28
-125 258 -826 320 -973 85 -204 266 -751 266 -806 0 -14 27 -85 60 -158 34
-72 68 -174 77 -226 17 -102 114 -177 164 -127 40 40 35 226 -8 292 -23 34
-57 128 -78 208 -39 156 -115 432 -180 659 -22 76 -54 171 -72 213 -87 204
-215 641 -201 686 38 119 127 62 265 -168 72 -120 156 -252 187 -293 198 -266
732 -1399 815 -1730 16 -66 56 -180 88 -252 32 -73 58 -166 58 -208 0 -41 16
-145 35 -230 53 -230 111 -713 129 -1072 l16 -317 94 -85 95 -85 26 116 c40
174 -5 773 -98 1288 -86 477 -122 607 -364 1337 -257 773 -414 1124 -699 1559
-173 264 -195 354 -85 354 48 0 125 -73 342 -321 155 -176 290 -318 301 -317
96 13 -134 361 -374 567 -181 156 -248 244 -238 314 25 182 298 -62 927 -828
170 -208 718 -1069 718 -1130 0 -21 80 -209 132 -309 35 -69 132 -450 159
-626 9 -56 32 -132 52 -172 42 -83 27 -141 -37 -141 -25 0 -59 -13 -75 -29
-32 -32 -38 -22 -67 112 -16 71 -76 82 -76 15 -1 -53 -49 -58 -58 -6 -21 133
-34 158 -79 158 -65 0 -92 -51 -42 -80 55 -30 52 -83 -10 -140 -76 -71 -41
-513 41 -525 47 -7 55 -29 70 -208 18 -217 11 -247 -60 -247 -58 0 -65 -11
-87 -144 -20 -119 7 -136 83 -54 69 73 84 31 76 -209 -4 -113 2 -231 12 -262
26 -76 110 -72 146 7 26 57 32 59 71 24 40 -36 51 -23 148 176 58 119 99 222
92 229 -7 8 18 73 57 146 39 73 79 186 89 252 10 67 33 143 53 171 47 67 44
83 -18 102 -50 16 -52 28 -35 224 10 126 8 213 -7 222 -13 9 -32 69 -41 134
-9 66 -33 181 -52 257 -20 76 -54 216 -77 313 -23 96 -50 186 -60 200 -11 13
-50 98 -87 187 -97 234 -206 474 -261 575 -26 48 -88 161 -137 250 -109 199
-396 583 -615 827 -161 178 -204 243 -183 279 6 10 -19 69 -55 130 -36 62 -62
138 -58 169 16 108 99 79 349 -123 132 -107 335 -262 450 -344 949 -679 1547
-1736 1547 -2733 0 -101 -10 -178 -86 -682 -42 -272 -161 -647 -264 -834 -39
-70 -99 -200 -135 -289 -61 -156 -159 -352 -442 -887 -72 -138 -144 -278 -159
-311 -14 -34 -108 -228 -208 -431 -99 -203 -181 -377 -181 -386 0 -9 -44 -113
-97 -232 -53 -118 -128 -311 -165 -428 -77 -237 -130 -300 -251 -300 -72 0
-100 21 -214 165 -72 90 -171 191 -221 225 -151 102 -284 207 -402 319 -140
133 -539 449 -738 585 -82 56 -213 156 -291 223 -212 181 -348 289 -445 355
-540 367 -1359 1193 -1712 1728 -208 316 -197 294 -502 1025 -210 503 -137
1412 177 2200 63 158 124 316 135 352 11 35 92 176 181 312 206 319 345 550
345 574 0 39 181 239 209 230 16 -5 32 -40 37 -78z m-5521 -11 c0 -80 -53
-204 -87 -204 -73 0 -66 160 10 218 56 43 77 39 77 -14z m463 -81 c0 -44 -16
-63 -57 -68 -61 -9 -70 21 -29 98 34 65 86 47 86 -30z m171 -1554 c22 -83 20
-94 -21 -94 -25 0 -38 25 -38 75 0 88 38 100 59 19z m310 12 c7 -20 -16 -31
-67 -31 -53 0 -77 12 -77 39 0 48 128 41 144 -8z m-594 -40 c0 -58 -54 -191
-77 -191 -34 0 -28 160 7 195 40 40 70 38 70 -4z m-4002 -901 c35 -42 0 -72
-58 -50 -42 16 -51 41 -23 68 25 26 49 20 81 -18z m10137 -730 c17 -44 -1 -85
-36 -85 -13 0 -24 28 -24 63 0 69 36 83 60 22z m3605 -260 c73 0 81 -62 12
-99 -97 -52 -152 -33 -152 52 0 60 9 74 40 62 21 -8 66 -15 100 -15z m-17115
-514 c0 -67 -43 -83 -66 -23 -19 50 9 119 41 100 14 -9 25 -43 25 -77z m15012
15 c44 -85 49 -166 13 -189 -25 -15 -123 168 -124 232 -1 59 73 31 111 -43z
m-1662 -121 c0 -32 -11 -51 -25 -42 -14 8 -25 51 -25 95 1 60 7 71 25 42 13
-21 24 -63 25 -95z m138 -345 c0 -30 -21 -50 -57 -55 -62 -9 -76 40 -26 90 41
41 83 24 83 -35z m1251 -462 c9 -15 7 -37 -5 -49 -30 -30 -95 13 -73 48 22 36
56 36 78 1z"/>
<path d="M20977 32729 c-50 -94 167 -429 278 -429 44 0 48 11 32 106 -42 252
-238 457 -310 323z"/>
<path d="M21900 32050 c-57 -57 -59 -72 -27 -157 50 -131 227 -97 227 42 0
139 -112 203 -200 115z"/>
<path d="M21700 31590 c0 -20 57 -71 127 -114 113 -69 126 -86 112 -142 -9
-36 -3 -79 14 -100 34 -41 -5 -270 -68 -394 -29 -57 -31 -77 -6 -92 91 -57
191 161 159 348 -14 83 -8 109 37 154 69 69 91 48 37 -35 -42 -64 -42 -151 2
-360 15 -72 10 -85 -37 -97 -86 -23 -60 -122 29 -116 52 4 69 -6 69 -41 0 -81
29 -126 80 -126 98 0 193 -130 178 -244 -12 -84 -6 -103 31 -110 35 -7 46 -37
52 -133 5 -85 22 -136 54 -162 64 -53 119 -197 87 -229 -38 -38 -8 -141 45
-155 58 -15 63 -98 9 -143 -27 -23 -33 -55 -22 -109 24 -115 50 -127 85 -41
53 127 81 90 63 -81 -14 -128 -9 -164 23 -191 54 -45 51 -70 -25 -160 -73 -86
-72 -188 3 -302 59 -89 87 -60 87 91 0 81 14 143 39 171 34 37 35 64 9 196
l-29 152 103 112 c106 115 120 156 80 232 -43 82 -127 382 -127 454 0 51 -15
75 -52 85 -34 9 -49 29 -44 59 11 55 96 61 121 8 58 -120 131 -372 132 -456 0
-88 76 -93 174 -13 104 87 75 226 -88 413 -69 79 -143 147 -165 152 -92 21
-132 83 -87 133 37 40 38 55 8 115 -19 38 -34 97 -35 131 -1 54 -13 63 -85 63
-70 0 -91 14 -130 87 -53 99 -62 191 -21 205 15 5 22 31 15 58 -12 46 -14 46
-31 -7 -36 -111 -135 -54 -154 88 -11 81 -26 105 -74 117 -32 8 -59 32 -59 53
0 21 -28 66 -62 101 -35 34 -63 84 -63 111 0 56 -26 63 -72 18 -26 -25 -40
-21 -71 25 -21 31 -49 56 -62 56 -14 0 -76 45 -138 100 -118 103 -257 138
-257 65z m540 -451 c21 -53 -15 -104 -43 -60 -29 46 -27 96 4 96 14 0 32 -16
39 -36z m127 -203 c20 -54 -32 -106 -70 -68 -32 32 -12 107 28 107 15 0 33
-18 42 -39z m546 -1369 c0 -98 -49 -94 -59 4 -5 61 2 81 25 73 19 -6 34 -41
34 -77z"/>
<path d="M23066 30256 c-6 -11 3 -46 21 -79 l32 -61 17 54 c24 77 -32 147 -70
86z"/>
<path d="M19459 29813 c-64 -44 -167 -255 -149 -303 7 -18 -1 -42 -18 -53 -54
-34 -192 -240 -192 -287 0 -26 28 -59 63 -75 34 -15 62 -37 62 -49 0 -12 17
-21 38 -21 52 0 78 -75 35 -101 -60 -37 0 -59 65 -24 35 19 105 35 156 36 l94
2 5 275 c3 151 12 297 19 325 8 27 3 65 -9 84 -31 47 -103 17 -103 -44 0 -49
-62 -89 -102 -64 -42 26 -24 103 40 171 34 37 62 89 62 116 0 59 0 59 -66 12z"/>
<path d="M19459 28813 c-20 -54 8 -113 53 -113 26 0 38 24 38 75 0 80 -64 107
-91 38z"/>
<path d="M19769 28148 c-101 -53 -123 -98 -48 -98 71 0 204 74 204 114 0 48
-44 44 -156 -16z"/>
<path d="M20834 27936 c-9 -21 -4 -63 9 -93 l24 -54 29 53 c30 56 16 133 -24
133 -13 0 -30 -17 -38 -39z"/>
<path d="M19705 27794 c4 -31 19 -56 33 -56 13 0 28 25 32 56 6 38 -4 56 -32
56 -29 0 -39 -18 -33 -56z"/>
<path d="M20992 27758 c-26 -25 -20 -128 8 -145 15 -10 25 20 25 73 0 91 -5
101 -33 72z"/>
<path d="M19060 26191 c-23 -61 -1 -146 46 -176 69 -43 132 11 132 113 0 77
-8 85 -82 92 -55 6 -86 -4 -96 -29z"/>
<path d="M19125 25813 c-47 -125 67 -250 187 -204 54 21 47 123 -14 200 -66
84 -142 85 -173 4z"/>
<path d="M28617 28021 c-54 -30 -55 -136 -1 -156 54 -21 109 28 109 98 0 66
-48 92 -108 58z"/>
<path d="M27406 27783 c-37 -15 -42 -83 -6 -83 14 0 25 -13 25 -28 0 -18 -30
-22 -85 -12 -149 28 -208 -53 -221 -307 -7 -156 -2 -211 23 -221 18 -7 33 -28
33 -47 0 -40 -89 -48 -112 -10 -39 62 -85 24 -71 -59 15 -91 -26 -142 -74 -94
-15 15 -37 28 -48 28 -30 0 -24 -136 8 -168 44 -44 2 -182 -55 -182 -34 0 -48
18 -48 61 0 84 -39 101 -85 35 -44 -62 -32 -96 34 -96 25 0 52 -20 61 -44 8
-24 22 -58 30 -75 11 -25 -9 -29 -85 -16 -122 19 -148 -14 -89 -115 55 -92 65
-93 140 -4 36 44 96 78 151 89 72 13 100 35 133 104 53 112 72 122 163 85 98
-41 126 -12 139 142 6 66 16 125 22 131 19 19 84 -81 85 -129 1 -53 74 -87 99
-46 22 36 17 284 -8 323 -9 16 -6 50 8 76 17 32 16 55 -2 73 -36 36 -8 106 42
106 50 0 75 -66 40 -109 -26 -32 -14 -66 23 -66 33 0 44 132 18 208 -24 67
-20 80 40 123 87 63 83 102 -15 179 -79 62 -80 64 -31 102 47 36 43 38 -63 35
-62 -2 -129 3 -150 10 -21 8 -52 8 -69 1z m244 -283 c0 -28 -17 -50 -37 -50
-21 0 -38 22 -38 50 0 28 17 50 38 50 20 0 37 -22 37 -50z"/>
<path d="M27786 27723 c-9 -15 -5 -39 9 -53 32 -32 80 -5 80 44 0 42 -64 48
-89 9z"/>
<path d="M30200 27702 c0 -59 -161 -214 -221 -214 -66 0 -277 -113 -304 -162
-13 -24 -56 -51 -96 -59 -117 -23 -110 -273 9 -296 41 -7 51 -32 57 -149 7
-133 4 -142 -56 -157 -39 -10 -69 -39 -78 -76 -8 -32 -37 -65 -63 -72 -27 -7
-48 -34 -48 -61 0 -83 -96 -183 -168 -175 -90 9 -96 -36 -18 -129 63 -74 69
-76 103 -34 34 41 35 40 20 -18 -9 -34 -22 -88 -29 -119 -19 -77 -36 -71 -133
44 -84 101 -150 129 -150 66 0 -19 17 -49 38 -66 52 -44 46 -102 -13 -118 -27
-7 -50 -29 -50 -50 0 -20 -63 -96 -141 -170 -127 -120 -140 -141 -126 -210 18
-90 -2 -96 -92 -25 -73 57 -100 7 -28 -52 95 -79 17 -281 -86 -226 -88 47
-152 -7 -152 -128 0 -89 -6 -100 -49 -89 -58 15 -93 -21 -105 -107 -5 -35 -33
-73 -65 -87 -69 -30 -72 -91 -8 -149 57 -51 112 -29 94 39 -15 57 27 88 65 50
57 -57 109 -22 268 173 155 191 164 198 197 150 41 -61 141 -67 163 -11 19 49
-2 85 -49 85 -20 0 -36 16 -36 35 0 38 53 65 128 65 33 0 59 26 76 75 14 41
39 75 56 75 16 0 74 45 128 100 79 81 101 93 118 63 32 -57 69 -46 69 21 0
103 52 216 100 216 51 0 86 65 48 89 -30 18 -17 72 17 76 69 6 120 54 162 151
25 60 56 109 68 109 12 0 43 46 69 102 39 88 50 97 75 63 45 -62 67 -47 48 35
-12 56 -6 79 24 90 31 12 34 24 12 50 -22 27 -22 44 2 73 40 48 73 47 129 -5
56 -50 94 -23 52 37 -17 23 -46 78 -66 121 -19 43 -47 86 -62 95 -35 21 -36
64 -2 64 14 0 57 -22 94 -49 37 -27 99 -56 138 -65 69 -17 70 -16 54 71 -14
74 -8 93 35 116 28 15 77 84 108 152 62 136 83 151 108 75 18 -59 107 -67 129
-11 9 25 -16 71 -67 123 -66 68 -78 97 -65 151 20 80 -2 162 -44 162 -20 0
-27 -33 -21 -97 6 -54 -3 -105 -18 -114 -28 -18 -37 -1 -62 116 -10 44 -34 69
-70 75 -35 5 -61 30 -70 70 -19 83 -150 107 -150 27z m91 -164 c13 -41 -33
-96 -63 -77 -46 28 -34 119 14 110 23 -5 45 -20 49 -33z m-126 -178 c-8 -21
-15 -44 -15 -50 0 -5 -17 -10 -37 -10 -46 0 -49 29 -8 70 43 43 78 37 60 -10z
m175 -171 c21 -53 -35 -139 -91 -139 -54 0 -63 51 -23 127 30 56 95 63 114 12z"/>
<path d="M25551 27252 c-35 -66 -10 -119 65 -138 53 -13 60 -27 48 -84 -35
-168 120 -257 219 -124 64 85 29 184 -80 222 -51 18 -77 46 -87 98 -18 89
-123 105 -165 26z"/>
<path d="M28325 26726 c-21 -11 -70 -30 -111 -42 -78 -23 -159 -137 -162 -228
-3 -83 28 -68 92 44 63 109 169 138 231 63 17 -21 56 -38 86 -38 30 0 66 -12
81 -27 15 -15 49 -22 74 -15 42 10 41 14 -10 30 -31 10 -56 33 -56 51 0 18
-21 39 -46 47 -25 8 -61 43 -79 77 -36 67 -43 70 -100 38z"/>
<path d="M28560 26714 c-19 -49 8 -89 61 -89 24 0 57 -13 72 -28 33 -33 82 -9
82 41 0 82 -188 148 -215 76z"/>
<path d="M28158 26367 c-43 -61 -83 -143 -89 -183 -6 -39 -7 -59 -1 -43 5 16
43 43 84 60 42 17 80 56 88 89 18 71 90 98 161 59 29 -15 59 -22 66 -16 24 24
-44 117 -87 117 -23 1 -65 7 -93 14 -39 11 -69 -12 -129 -97z"/>
<path d="M26235 26002 c-112 -50 -162 -152 -108 -217 41 -49 80 -44 134 20 35
41 102 249 79 244 -1 0 -49 -21 -105 -47z"/>
<path d="M29436 24039 c-47 -34 -46 -36 19 -52 99 -25 132 -6 76 45 -41 37
-53 38 -95 7z"/>
<path d="M29225 23851 c0 -13 25 -41 55 -62 74 -52 131 -3 59 50 -55 41 -114
47 -114 12z"/>
<path d="M29092 23709 c-29 -30 -19 -134 14 -134 68 1 108 47 80 92 -31 49
-69 66 -94 42z"/>
<path d="M15300 27925 c-56 -56 -61 -93 -26 -184 54 -143 219 -128 277 24 60
158 -132 279 -251 160z"/>
<path d="M13806 27848 c-113 -43 -94 -195 31 -252 52 -24 71 -21 113 16 116
105 2 291 -144 236z"/>
<path d="M14328 27646 c-13 -34 -12 -84 2 -120 16 -44 14 -65 -7 -72 -40 -14
-114 -90 -128 -132 -10 -29 -18 -29 -53 0 -56 46 -53 96 8 134 48 30 72 144
30 144 -12 0 -44 -27 -73 -59 -28 -33 -65 -65 -82 -70 -52 -17 -66 -271 -16
-271 23 0 41 -11 41 -25 0 -14 -11 -25 -25 -25 -34 0 -31 -51 6 -132 22 -48
50 -68 97 -68 36 0 92 -21 125 -46 33 -25 80 -53 104 -62 25 -9 61 -55 81
-102 20 -48 48 -94 62 -103 46 -28 172 15 188 65 12 39 39 48 136 48 109 0
122 -6 137 -65 22 -88 -3 -107 -50 -40 -60 86 -186 58 -186 -41 0 -20 -19 -50
-41 -66 -23 -17 -34 -43 -24 -59 25 -41 103 -36 140 9 17 20 47 37 66 37 39 0
47 -89 9 -112 -14 -9 -25 -27 -25 -39 0 -34 66 -29 104 8 19 17 65 45 104 62
l70 31 -14 -106 c-17 -120 38 -204 168 -263 84 -37 243 -41 243 -6 0 14 -14
25 -31 25 -18 0 -46 23 -63 50 -17 27 -57 50 -87 50 -81 1 -101 23 -149 161
-49 142 -36 171 95 218 97 35 107 77 35 139 -57 49 -62 88 -21 154 50 80 9
125 -130 143 -92 12 -137 32 -164 72 -19 30 -62 67 -95 82 -73 33 -140 161
-140 267 0 43 -18 103 -40 135 -37 53 -43 54 -99 18 -82 -54 -120 -49 -209 26
l-77 64 -22 -58z m403 -385 c29 -29 -14 -111 -59 -111 -33 0 -47 18 -47 63 0
58 65 88 106 48z m-381 -250 c0 -24 -17 -36 -42 -32 -62 13 -71 71 -10 71 31
0 52 -16 52 -39z m249 -72 c34 -42 15 -89 -36 -89 -46 0 -67 36 -48 85 19 50
45 51 84 4z"/>
<path d="M12388 27565 c-73 -54 -24 -118 127 -168 316 -106 398 -120 619 -110
228 11 291 36 291 114 0 91 -67 122 -257 121 -99 0 -231 11 -293 24 -236 51
-435 59 -487 19z"/>
<path d="M14976 27477 c-70 -131 -11 -252 123 -252 164 0 212 129 99 265 -44
53 -191 45 -222 -13z"/>
<path d="M16792 27508 c-9 -9 -17 -54 -17 -100 0 -104 111 -124 148 -27 36 97
-64 194 -131 127z"/>
<path d="M11555 27395 c-105 -105 56 -207 683 -437 96 -35 186 -72 200 -82 13
-11 55 -26 93 -35 182 -44 1018 -447 1479 -713 122 -70 229 -128 238 -128 9 0
129 -76 268 -169 247 -166 300 -198 593 -370 147 -86 246 -106 315 -62 41 26
-37 198 -104 228 -18 9 -61 30 -95 49 -34 19 -116 63 -180 98 -65 35 -245 149
-400 253 -156 104 -324 214 -375 245 -94 57 -150 155 -98 173 30 10 40 80 11
80 -10 0 -42 -23 -71 -51 -65 -60 -93 -51 -337 105 -530 339 -1241 638 -1832
773 -374 84 -349 82 -388 43z"/>
<path d="M13542 27283 c-42 -42 -15 -158 47 -198 96 -63 186 -15 186 99 0 55
-14 91 -40 101 -52 20 -173 19 -193 -2z"/>
<path d="M11562 26800 c-30 -49 16 -120 183 -278 499 -473 562 -515 666 -438
43 31 27 52 -208 288 -329 329 -593 505 -641 428z"/>
<path d="M15425 26775 c0 -57 26 -64 70 -20 44 44 37 70 -20 70 -33 0 -50 -17
-50 -50z"/>
<path d="M15265 26529 c-23 -37 11 -104 52 -104 23 0 34 20 28 54 -8 59 -56
88 -80 50z"/>
<path d="M15465 26472 c-79 -158 67 -316 190 -205 43 39 49 38 108 -17 l62
-59 63 59 c113 107 64 270 -72 236 -40 -10 -84 -1 -120 24 -95 67 -187 52
-231 -38z"/>
<path d="M12756 26124 c-74 -30 -71 -64 11 -104 91 -44 104 -95 25 -95 -35 0
-98 29 -140 65 -80 67 -152 66 -152 -2 0 -22 17 -46 38 -54 20 -8 37 -30 37
-50 0 -20 -17 -42 -37 -50 -59 -22 -50 -175 10 -191 36 -9 51 -39 57 -109 9
-109 105 -156 136 -67 24 67 87 134 112 118 12 -7 22 -58 22 -113 0 -99 -1
-101 -75 -84 -81 17 -88 9 -49 -64 39 -73 120 -109 163 -73 59 49 49 336 -14
399 -53 53 -67 161 -24 188 40 25 99 -37 99 -105 0 -49 11 -60 56 -53 80 11
94 133 18 152 -68 18 -57 106 14 106 32 0 52 -20 57 -57 9 -59 55 -79 55 -24
0 51 -75 143 -116 143 -22 0 -70 34 -109 75 -74 79 -102 86 -194 49z m-31
-368 c-1 -85 -35 -143 -72 -120 -55 33 -24 189 37 189 22 0 35 -26 35 -69z"/>
<path d="M15663 26125 c-24 -37 9 -75 63 -75 32 0 49 17 49 50 0 53 -84 72
-112 25z"/>
<path d="M15890 26060 c-7 -19 -35 -35 -61 -35 -27 0 -54 -22 -61 -50 -8 -29
-34 -50 -63 -50 -28 0 -55 21 -62 50 -7 27 -27 50 -43 50 -16 0 -36 -23 -43
-50 -7 -27 -28 -50 -47 -50 -49 0 -44 -73 6 -92 24 -10 49 1 63 26 13 22 34
41 47 41 41 0 26 -65 -26 -112 -56 -51 -63 -129 -24 -269 43 -153 97 -121 96
58 -1 84 5 159 13 166 23 24 87 -44 95 -101 14 -101 107 -81 231 48 95 99 118
112 151 86 53 -44 48 -76 -12 -76 -27 0 -50 -10 -50 -23 0 -13 -7 -41 -15 -62
-11 -29 -1 -40 36 -40 29 0 57 22 67 50 19 62 39 63 101 5 53 -48 301 -114
340 -90 25 15 146 -101 146 -141 0 -13 12 -24 26 -24 15 0 19 12 10 27 -9 15
10 56 43 91 45 50 49 61 15 49 -58 -21 -119 5 -119 50 0 41 -147 183 -190 183
-16 0 -56 22 -88 50 -57 48 -58 51 -13 86 25 20 39 48 30 62 -26 41 -167 32
-218 -15 -26 -22 -54 -33 -63 -24 -9 9 2 30 25 48 27 20 34 42 19 66 -31 49
-344 60 -362 12z"/>
<path d="M15300 25964 c0 -23 21 -39 52 -39 61 0 52 58 -10 71 -25 4 -42 -8
-42 -32z"/>
<path d="M13300 25854 c0 -24 83 -104 108 -104 30 0 18 45 -22 86 -43 42 -86
52 -86 18z"/>
<path d="M13130 25645 c-55 -55 -37 -262 26 -306 66 -46 172 -51 214 -9 43 43
37 224 -9 289 -43 62 -180 77 -231 26z"/>
<path d="M15221 24159 c-53 -15 -82 -128 -44 -174 45 -54 166 -44 199 16 64
121 -11 198 -155 158z"/>
<path d="M14100 23551 c-66 -42 -50 -320 22 -379 164 -133 269 75 152 304 -50
99 -101 121 -174 75z"/>
<path d="M15051 22927 c-41 -77 -31 -123 37 -167 77 -50 162 5 162 105 0 102
-153 148 -199 62z"/>
<path d="M23113 25950 c-35 -38 -50 -115 -66 -331 -11 -155 -26 -310 -32 -344
-76 -388 -71 -500 23 -500 99 0 261 566 270 941 6 245 -86 355 -195 234z"/>
<path d="M22786 25848 c-22 -35 27 -84 62 -62 15 9 27 33 27 53 0 42 -64 48
-89 9z"/>
<path d="M21914 25627 c-41 -46 -41 -60 -6 -207 123 -503 138 -693 98 -1220
-38 -487 -99 -666 -205 -600 -45 27 -76 307 -47 412 30 109 26 282 -8 303 -44
27 -96 -64 -96 -167 0 -92 -52 -165 -97 -137 -13 8 -36 71 -51 140 -30 140
-88 263 -205 436 -58 87 -71 124 -50 145 71 71 -53 381 -162 408 -125 32 -176
-92 -85 -208 67 -85 63 -100 -25 -119 -103 -23 -96 -82 27 -229 273 -327 429
-764 298 -834 -43 -23 -74 -11 -192 74 -166 119 -283 136 -283 42 0 -69 48
-115 200 -192 175 -87 462 -341 522 -461 87 -175 91 -298 15 -535 -70 -221
-84 -390 -39 -474 41 -76 35 -95 -60 -201 -107 -117 -112 -172 -19 -191 38 -8
136 -30 219 -49 82 -18 208 -41 279 -50 286 -38 399 -267 233 -475 -108 -137
-95 -263 27 -263 12 0 85 56 161 125 116 105 153 125 235 125 171 0 346 -211
400 -482 82 -411 172 -688 229 -706 67 -21 75 -12 100 124 78 418 133 495 392
551 106 24 245 59 308 79 106 34 123 33 249 -16 168 -67 343 -183 424 -283
171 -211 195 -231 242 -202 131 80 -4 326 -282 515 -103 70 -107 95 -16 95
109 0 277 -139 511 -421 60 -72 75 -78 122 -53 58 31 54 194 -6 266 -154 185
-553 366 -752 340 -155 -20 -224 8 -214 88 6 58 24 71 120 92 162 37 184 55
139 119 -50 70 -12 135 92 158 198 42 351 166 326 263 -21 79 -42 78 -319 -7
-202 -61 -276 -74 -308 -54 -111 70 -35 179 173 247 145 47 373 176 535 301
55 43 161 103 237 134 76 32 228 103 338 159 189 95 210 101 406 97 225 -5
314 28 340 128 44 166 -207 230 -418 106 -58 -34 -214 -95 -347 -136 -276 -85
-333 -112 -593 -282 -239 -156 -587 -326 -644 -315 -25 4 -48 32 -52 61 -6 43
28 70 188 152 384 196 551 322 523 394 -25 65 -90 43 -386 -126 -308 -177
-387 -193 -400 -82 -7 59 13 79 165 170 95 56 250 170 345 254 95 83 246 187
336 232 174 86 730 465 868 590 156 143 88 273 -94 178 -84 -44 -149 -36 -77
9 43 26 177 280 177 334 0 119 -159 119 -265 0 -163 -181 -209 -421 -82 -421
59 0 60 -31 3 -81 -67 -59 -671 -462 -881 -588 -103 -61 -228 -139 -278 -172
-78 -53 -99 -57 -155 -32 -60 28 -76 20 -210 -94 -186 -160 -196 -165 -256
-133 -132 70 -67 162 420 597 232 206 287 277 264 337 -28 73 -136 47 -270
-67 -268 -227 -573 -444 -612 -436 -44 8 -51 83 -20 202 18 68 15 70 -63 62
-118 -11 -118 52 2 250 55 92 136 246 179 343 43 96 111 244 151 328 40 85 73
162 73 173 0 10 61 121 135 246 166 280 215 394 219 520 5 114 -49 183 -122
160 -53 -17 -71 -49 -195 -352 -81 -201 -156 -346 -592 -1163 -243 -453 -316
-540 -392 -464 -42 42 2 169 134 389 217 359 266 500 176 500 -53 0 -110 -63
-251 -276 -408 -623 -668 -765 -519 -284 41 131 63 271 68 415 4 120 19 233
34 252 28 33 14 143 -18 143 -36 0 -77 -62 -77 -117 0 -32 -22 -80 -48 -106
-27 -27 -56 -102 -65 -169 -36 -264 -144 -579 -214 -622 -15 -9 -45 0 -66 21
-32 33 -34 77 -9 336 16 164 27 383 25 486 -3 103 8 211 24 240 86 161 -58
891 -186 940 -61 24 -74 20 -122 -32z m886 -2552 c95 -51 111 -185 37 -321
-90 -166 -280 -379 -338 -379 -166 0 -99 436 101 649 74 80 123 92 200 51z
m-551 -323 c59 -110 15 -243 -125 -382 -122 -121 -275 -21 -236 155 39 180
299 342 361 227z m1099 -118 c75 -95 65 -146 -54 -276 -273 -298 -515 -352
-406 -91 45 109 249 399 293 416 69 28 118 14 167 -49z m183 -444 c68 -103
-88 -465 -202 -465 -59 0 -226 84 -241 122 -37 91 274 418 369 389 31 -10 64
-30 74 -46z"/>
<path d="M23791 25556 c-19 -38 -48 -125 -63 -193 -56 -249 -102 -393 -149
-471 -27 -44 -56 -116 -66 -160 -9 -45 -27 -88 -40 -96 -29 -18 -30 -111 -1
-111 50 0 255 257 327 411 98 208 175 453 176 553 0 142 -123 187 -184 67z"/>
<path d="M21569 25486 c-79 -52 -94 -76 -94 -149 0 -97 58 -120 113 -45 29 40
34 40 75 -1 24 -24 60 -38 80 -30 20 8 41 14 47 14 32 0 2 153 -42 209 -62 79
-61 79 -179 2z"/>
<path d="M24799 25149 c-42 -79 14 -132 66 -63 19 27 32 60 28 74 -16 48 -65
42 -94 -11z"/>
<path d="M22414 25102 c-18 -29 10 -102 39 -102 12 0 22 28 22 63 0 61 -34 83
-61 39z"/>
<path d="M25213 25080 c-76 -65 -179 -210 -221 -311 -35 -84 -34 -93 10 -133
69 -63 60 -107 -52 -255 -109 -144 -115 -163 -69 -199 53 -42 180 31 301 173
240 283 299 424 193 458 -58 18 -60 29 -14 112 35 63 16 139 -46 181 -38 25
-46 23 -102 -26z"/>
<path d="M24500 24500 c0 -41 11 -75 25 -75 50 0 23 -81 -51 -155 -42 -42 -73
-94 -69 -117 11 -53 95 -69 95 -18 0 33 70 90 111 90 36 0 8 -76 -37 -100 -59
-32 -44 -69 43 -102 79 -30 61 -87 -26 -81 -79 6 -81 -2 -15 -68 55 -55 164
-66 287 -30 107 31 116 132 16 203 -40 29 -81 81 -89 115 -9 35 -25 63 -36 63
-11 0 -40 15 -65 33 -43 32 -43 37 -2 125 54 113 32 210 -28 130 -38 -50 -39
-50 -77 6 -52 77 -82 70 -82 -19z"/>
<path d="M24365 24435 c-18 -48 4 -92 37 -71 29 18 30 111 1 111 -13 0 -30
-18 -38 -40z"/>
<path d="M24342 24040 c-18 -46 4 -65 75 -65 66 0 79 61 18 85 -59 23 -78 19
-93 -20z"/>
<path d="M24494 23331 c-62 -71 -99 -156 -69 -156 53 0 150 82 150 126 0 66
-37 80 -81 30z"/>
<path d="M25925 23215 c-89 -32 -185 -67 -212 -78 -86 -33 -163 -118 -163
-179 0 -75 93 -78 308 -7 85 27 202 61 260 75 166 40 226 127 143 210 -54 54
-145 48 -336 -21z"/>
<path d="M25919 22173 c-90 -52 -10 -173 115 -173 80 0 137 107 88 166 -33 40
-140 44 -203 7z"/>
<path d="M25607 21801 c-114 -27 -207 -94 -207 -149 0 -62 36 -73 312 -93 268
-18 363 15 363 128 0 122 -215 174 -468 114z"/>
<path d="M25069 21425 c-52 -33 -57 -108 -11 -146 18 -16 111 -39 206 -54 323
-47 377 -67 569 -203 58 -40 129 -91 159 -112 76 -54 168 -7 143 73 -46 150
-254 338 -447 405 -151 52 -556 76 -619 37z"/>
<path d="M23786 20406 c-89 -62 -157 -306 -85 -306 116 0 290 198 246 280 -24
45 -112 60 -161 26z"/>
<path d="M28606 21771 c-86 -86 5 -169 131 -121 64 24 66 29 32 82 -43 65
-119 83 -163 39z"/>
<path d="M29755 21670 c-45 -45 -37 -169 11 -187 98 -38 173 100 96 176 -48
49 -67 51 -107 11z"/>
<path d="M30374 20687 c-28 -34 -28 -44 3 -64 69 -43 127 -27 118 33 -9 69
-75 85 -121 31z"/>
<path d="M28485 20239 c-30 -76 2 -126 84 -134 72 -7 81 -1 81 55 0 92 -135
157 -165 79z"/>
<path d="M31494 19499 c-76 -45 -61 -258 20 -295 154 -70 217 -17 206 175 -7
133 -8 134 -95 140 -48 3 -107 -6 -131 -20z"/>
<path d="M26200 19280 c0 -24 108 -105 138 -105 9 0 12 25 7 56 -8 57 -145
102 -145 49z"/>
<path d="M30825 19153 c0 -25 124 -62 143 -43 7 6 5 24 -4 38 -20 33 -139 36
-139 5z"/>
<path d="M31780 19029 c-26 -17 -27 -34 -2 -88 39 -86 82 -72 92 30 8 81 -23
100 -90 58z"/>
<path d="M28450 18856 c0 -24 16 -74 35 -110 45 -87 33 -96 -124 -96 -85 0
-141 -13 -161 -37 -17 -21 -53 -38 -80 -38 -56 0 -199 -124 -180 -155 19 -30
121 -24 154 9 23 23 39 8 69 -63 36 -88 97 -107 159 -52 23 21 -28 140 -66
154 -69 25 -111 107 -54 107 14 0 82 -24 150 -53 135 -58 159 -117 71 -175
l-52 -35 54 -69 c48 -61 70 -68 208 -69 134 0 149 -5 111 -34 -54 -41 -56 -65
-6 -65 21 0 44 -15 52 -34 10 -26 53 -31 181 -22 154 11 175 6 246 -54 43 -36
96 -65 118 -65 22 0 40 -15 40 -34 0 -45 82 -116 134 -116 73 0 166 -77 166
-137 0 -54 78 -102 111 -69 23 23 16 119 -10 145 -36 36 -2 142 40 126 64 -25
159 33 201 122 50 104 115 114 171 28 22 -33 67 -67 101 -76 33 -8 61 -24 61
-35 0 -80 64 -106 159 -66 109 45 112 44 122 -38 5 -49 -5 -60 -56 -61 -74 -2
-94 -74 -53 -191 19 -53 18 -93 -2 -137 -37 -81 0 -114 48 -42 21 31 54 56 73
56 20 0 34 27 34 67 0 53 7 61 30 38 41 -41 182 -38 218 5 16 19 57 42 91 51
83 20 77 52 -26 142 -107 94 -118 184 -25 207 72 18 83 91 23 151 -50 50 -111
50 -111 2 0 -64 -134 -46 -201 26 -56 59 -62 61 -92 20 -37 -51 -54 -40 -63
42 -5 47 7 63 50 69 31 5 56 20 56 34 0 16 -36 21 -94 12 -250 -39 -431 -41
-431 -5 0 54 34 65 120 40 94 -27 155 22 93 74 -30 24 -53 25 -110 1 -108 -45
-234 -9 -345 97 -104 100 -220 152 -339 152 -55 0 -71 10 -60 37 20 54 -37 77
-72 29 -39 -53 -98 -52 -190 2 -86 51 -140 29 -193 -78 -42 -86 -129 -119
-246 -95 -135 28 -146 93 -13 71 128 -20 173 -3 218 86 54 103 47 131 -25 113
-46 -12 -63 -6 -63 20 0 74 -142 117 -227 70 -71 -40 -77 -40 -108 1 -18 24
-46 44 -62 44 -15 0 -28 -20 -28 -44z m525 -680 c0 -12 -12 -30 -26 -39 -37
-23 -105 7 -87 38 20 32 113 33 113 1z m400 -103 c0 -64 -83 -57 -95 9 -6 30
7 43 43 43 36 0 52 -16 52 -52z m1025 -24 c47 -86 0 -109 -75 -36 -51 48 -85
62 -123 50 -30 -10 -52 -5 -52 10 0 53 221 32 250 -24z"/>
<path d="M31950 18714 c0 -23 21 -39 52 -39 61 0 52 58 -10 71 -25 4 -42 -8
-42 -32z"/>
<path d="M31091 17881 c-7 -11 -3 -59 8 -107 12 -47 22 -64 24 -36 1 27 9 75
18 106 14 53 -23 80 -50 37z"/>
<path d="M30064 17786 c-64 -65 -56 -519 11 -586 64 -64 79 -63 147 9 41 44
55 89 55 181 0 67 2 175 5 238 7 176 -113 263 -218 158z"/>
<path d="M27050 17588 c-47 -58 19 -139 227 -277 190 -126 298 -135 319 -27 9
46 -133 216 -180 216 -13 0 -61 28 -106 63 -91 69 -213 81 -260 25z"/>
<path d="M28975 17200 c-75 -106 -17 -250 101 -250 119 0 147 164 48 271 -67
71 -85 68 -149 -21z"/>
<path d="M29606 17221 c-59 -59 -38 -125 38 -116 54 6 69 20 69 70 0 69 -59
94 -107 46z"/>
<path d="M16476 21776 c-108 -108 -12 -237 178 -237 135 0 215 121 141 215
-55 69 -257 84 -319 22z"/>
<path d="M15922 21743 c-71 -49 -167 -186 -171 -248 -2 -28 327 9 418 47 64
27 81 48 81 104 0 150 -172 201 -328 97z"/>
<path d="M15491 21563 c-8 -21 -38 -38 -66 -38 -71 0 -92 -69 -34 -113 43 -33
43 -35 3 -36 -24 -1 -44 7 -44 18 0 10 -37 44 -83 74 -101 70 -249 35 -236
-55 5 -39 -8 -50 -54 -50 -41 0 -73 -24 -102 -75 -33 -61 -60 -77 -139 -84
-54 -4 -107 -24 -118 -43 -11 -20 -47 -36 -80 -36 -38 0 -65 -18 -75 -50 -20
-61 -53 -64 -83 -9 -13 23 -35 34 -48 26 -32 -20 -39 -404 -9 -462 12 -23 34
-73 49 -111 38 -96 166 -99 208 -5 52 114 -32 179 -161 124 -37 -15 -44 -5
-44 69 0 66 12 90 50 100 34 9 50 34 50 80 0 73 42 75 86 5 20 -33 18 -49 -8
-65 -109 -68 155 -125 363 -79 73 17 134 39 134 49 0 10 46 44 102 76 93 53
98 60 62 100 -57 63 -49 77 46 77 89 0 203 85 262 194 16 31 52 56 79 56 51 0
72 162 34 260 -19 51 -125 52 -144 3z m-620 -696 c5 -28 -9 -42 -44 -42 -29 0
-52 15 -52 33 0 77 81 84 96 9z"/>
<path d="M14104 20881 c-44 -86 -54 -179 -25 -242 39 -86 121 -86 121 0 0 35
12 87 27 115 38 72 8 171 -52 171 -26 0 -58 -20 -71 -44z"/>
<path d="M15600 20188 c0 -23 -23 -38 -56 -38 -95 -1 -135 -40 -74 -72 78 -42
98 -35 141 51 46 93 47 96 14 96 -14 0 -25 -17 -25 -37z"/>
<path d="M14950 19880 c0 -11 14 -33 30 -50 44 -44 70 -37 70 20 0 33 -17 50
-50 50 -27 0 -50 -9 -50 -20z"/>
<path d="M14775 19688 c0 -69 2 -70 60 -48 59 23 51 110 -10 110 -37 0 -50
-17 -50 -62z"/>
<path d="M14117 17569 c-49 -36 -80 -191 -47 -239 33 -49 205 -70 232 -27 30
47 29 190 -3 249 -29 55 -119 63 -182 17z"/>
<path d="M17409 17261 c-35 -54 -37 -72 -8 -125 67 -126 224 -94 224 45 0 144
-140 196 -216 80z"/>
<path d="M14079 17084 c5 -26 26 -46 46 -46 54 0 46 72 -9 83 -33 6 -43 -4
-37 -37z"/>
<path d="M16406 17007 c-58 -21 -31 -55 58 -71 78 -15 169 17 134 47 -21 18
-161 36 -192 24z"/>
<path d="M17156 18075 c-17 -27 -46 -50 -63 -50 -29 0 -118 -122 -118 -160 0
-45 104 -7 124 45 13 34 55 76 93 94 83 40 110 121 41 121 -25 0 -60 -22 -77
-50z"/>
<path d="M24397 18331 c39 -71 195 -231 225 -231 52 0 29 51 -66 147 -106 108
-198 156 -159 84z"/>
<path d="M24900 17713 c0 -40 84 -95 109 -70 42 41 13 107 -46 107 -39 0 -63
-14 -63 -37z"/>
<path d="M20276 17571 c-88 -95 -62 -271 40 -271 80 0 115 90 82 209 -32 116
-59 129 -122 62z"/>
<path d="M25266 17382 c-10 -9 -47 -18 -83 -18 -84 -2 -130 -70 -85 -124 20
-24 54 -34 87 -26 36 9 70 -4 101 -38 84 -92 214 -52 214 67 0 106 -168 206
-234 139z"/>
<path d="M24473 16971 c-35 -65 -13 -336 31 -388 16 -20 58 -32 94 -28 64 7
64 8 57 219 -4 132 -18 219 -37 231 -55 35 -116 21 -145 -34z"/>
<path d="M22925 16388 c0 -43 11 -63 31 -57 17 6 32 31 32 57 0 25 -15 50 -32
56 -20 6 -31 -14 -31 -56z"/>
<path d="M24660 16356 c-109 -73 -74 -264 53 -296 100 -25 145 31 130 161 -15
135 -95 194 -183 135z"/>
<path d="M21031 14856 c-121 -80 6 -461 159 -476 72 -7 79 -1 93 82 34 214
-132 474 -252 394z"/>
<path d="M25167 13933 c-31 -30 -18 -83 21 -83 20 0 37 22 37 50 0 50 -27 65
-58 33z"/>
<path d="M24750 13826 c-63 -41 -64 -992 0 -1026 130 -69 179 53 194 479 17
463 -1 571 -89 571 -37 -1 -84 -11 -105 -24z"/>
<path d="M23065 13710 c-24 -63 -18 -134 20 -219 19 -43 64 -168 98 -278 200
-629 451 -1185 729 -1613 58 -89 125 -193 147 -230 81 -134 113 -66 98 201
-14 237 -16 244 -120 379 -202 263 -606 1128 -718 1538 -53 193 -212 332 -254
222z"/>
<path d="M22850 13137 c0 -21 -17 -65 -38 -97 -34 -52 -34 -61 1 -90 50 -42
59 -31 78 108 11 80 7 117 -13 117 -15 0 -28 -17 -28 -38z"/>
<path d="M24336 12965 c-18 -72 16 -195 58 -209 41 -13 68 113 41 189 -31 87
-80 97 -99 20z"/>
<path d="M24381 12569 c16 -48 94 -54 94 -8 0 23 -21 39 -52 39 -31 0 -48 -13
-42 -31z"/>
<path d="M24067 12531 c-27 -48 6 -451 45 -543 41 -95 45 -97 80 -50 28 38 33
83 19 187 -9 76 -19 184 -20 240 -4 127 -85 235 -124 166z"/>
<path d="M16631 33632 c-45 -16 -38 -106 9 -124 40 -15 84 28 85 83 0 34 -50
56 -94 41z"/>
<path d="M13066 32013 c-16 -41 21 -74 59 -50 37 23 30 87 -10 87 -19 0 -41
-17 -49 -37z"/>
<path d="M12766 31762 c-9 -23 1 -45 24 -54 46 -18 97 27 74 65 -25 40 -81 33
-98 -11z"/>
<path d="M31130 30145 c-47 -47 -36 -86 47 -155 87 -73 129 -81 171 -30 77 93
-132 271 -218 185z"/>
<path d="M33869 26669 c-21 -62 13 -117 132 -217 134 -113 149 -120 149 -62 0
39 -139 256 -187 291 -39 28 -83 22 -94 -12z"/>
<path d="M34260 25915 c-8 -20 -10 -68 -6 -107 14 -118 196 -103 196 16 0 93
-160 169 -190 91z"/>
<path d="M34891 24562 c-39 -101 76 -217 146 -147 47 48 47 60 -1 129 -45 64
-124 74 -145 18z"/>
<path d="M35187 23322 c-21 -66 35 -176 84 -167 64 13 92 85 59 156 -35 78
-120 85 -143 11z"/>
<path d="M6585 16839 c-28 -72 1 -151 59 -160 70 -9 98 52 60 135 -31 67 -98
81 -119 25z"/>
<path d="M7987 13550 c-27 -44 15 -125 65 -125 54 0 66 72 18 120 -37 37 -62
38 -83 5z"/>
<path d="M10087 10874 c-26 -42 8 -142 53 -159 85 -33 147 88 80 155 -37 37
-111 39 -133 4z"/>
<path d="M30990 10210 c-29 -76 -15 -110 44 -110 71 0 127 59 107 112 -19 50
-131 49 -151 -2z"/>
<path d="M10994 10106 c-72 -16 -51 -102 37 -156 102 -62 161 -23 122 80 -25
65 -82 92 -159 76z"/>
<path d="M11267 9766 c-7 -19 1 -61 17 -94 37 -73 148 -83 162 -14 18 94 -146
193 -179 108z"/>
<path d="M28592 8480 c-57 -63 -53 -123 9 -143 70 -22 128 32 119 111 -9 79
-71 95 -128 32z"/>
<path d="M25581 7121 c-92 -92 38 -209 131 -118 39 37 44 57 23 91 -34 54
-113 68 -154 27z"/>
<path d="M17605 6719 c8 -63 85 -89 129 -45 21 22 16 38 -20 65 -72 54 -119
45 -109 -20z"/>
<path d="M17861 6714 c-55 -41 -27 -120 49 -135 93 -18 161 123 75 156 -56 22
-70 19 -124 -21z"/>
<path d="M18542 6589 c-24 -60 53 -105 100 -58 21 22 31 52 22 67 -24 39 -106
33 -122 -9z"/>
<path d="M19214 6461 c-49 -50 -49 -85 0 -155 95 -136 282 -4 221 154 -20 53
-169 53 -221 1z"/>
<path d="M9199 33411 c-52 -62 -2 -172 83 -181 63 -8 68 -1 68 80 0 62 -15 96
-48 114 -63 33 -65 33 -103 -13z"/>
<path d="M9425 33238 c-47 -57 -10 -160 65 -178 97 -25 180 65 140 151 -33 74
-153 89 -205 27z"/>
<path d="M9967 31483 c-31 -30 -17 -108 18 -108 69 0 115 31 115 78 0 47 -95
69 -133 30z"/>
<path d="M33242 33134 c-35 -36 -15 -84 35 -84 35 0 49 14 44 42 -9 46 -52 69
-79 42z"/>
<path d="M32137 31200 c-36 -41 -41 -63 -21 -95 62 -99 196 -42 180 75 -11 76
-98 87 -159 20z"/>
<path d="M34528 30321 c-29 -80 -7 -125 56 -116 41 6 54 25 54 82 0 95 -78
119 -110 34z"/>
<path d="M35024 30188 c-48 -17 -137 -55 -199 -83 -62 -28 -157 -58 -212 -67
-210 -33 -213 -35 -213 -109 0 -43 25 -94 64 -130 35 -34 86 -96 113 -140 94
-152 143 -139 305 79 61 82 152 188 202 236 154 146 116 278 -60 214z"/>
<path d="M34389 28694 c-50 -71 -50 -155 0 -205 83 -82 171 -17 171 128 0 132
-101 178 -171 77z"/>
<path d="M4060 16090 c-27 -70 117 -279 176 -256 57 21 48 88 -27 196 -68 98
-126 121 -149 60z"/>
<path d="M5300 13513 c-37 -46 -15 -113 37 -113 24 0 38 23 38 61 0 76 -35
100 -75 52z"/>
<path d="M34905 11095 c-36 -36 -40 -136 -5 -158 42 -25 121 12 138 65 29 91
-68 158 -133 93z"/>
<path d="M31567 8158 c-29 -28 -19 -128 14 -140 45 -16 119 27 119 70 0 51
-100 104 -133 70z"/>
<path d="M32466 7804 c-51 -57 -53 -138 -3 -180 91 -75 238 97 162 189 -42 50
-109 47 -159 -9z"/>
<path d="M9577 8302 c-89 -89 -57 -252 49 -252 123 0 177 278 57 295 -31 5
-78 -15 -106 -43z"/>
<path d="M8242 7758 c-66 -65 37 -256 120 -224 39 15 52 127 23 201 -15 40
-112 55 -143 23z"/>
<path d="M29263 7025 c-57 -63 -14 -125 87 -125 84 0 135 55 113 124 -22 67
-140 68 -200 1z"/>
<path d="M11105 7795 c-40 -40 -39 -188 1 -201 109 -37 185 95 106 182 -52 57
-66 60 -107 19z"/>
<path d="M11152 7261 c-371 -212 -588 -790 -393 -1046 228 -300 553 -223 847
199 219 314 255 469 159 676 -110 236 -372 309 -613 171z"/>
<path d="M11750 6198 c0 -61 58 -52 71 10 4 25 -8 42 -32 42 -23 0 -39 -21
-39 -52z"/>
<path d="M14814 5936 c-46 -47 -50 -119 -10 -183 21 -34 21 -66 -1 -129 -24
-69 -22 -90 9 -122 63 -63 159 48 123 143 -15 38 -18 92 -8 119 54 136 -27
258 -113 172z"/>
<path d="M12738 5276 c-22 -35 6 -76 53 -76 22 0 34 18 30 42 -10 50 -60 71
-83 34z"/>
<path d="M14318 4684 c-31 -30 -20 -102 21 -135 56 -47 135 32 95 95 -29 48
-89 68 -116 40z"/>
<path d="M28212 6324 c-10 -16 -6 -40 8 -54 34 -34 112 -5 99 36 -14 42 -85
54 -107 18z"/>
<path d="M16555 5470 c-77 -77 28 -286 109 -219 50 42 45 158 -10 208 -54 49
-60 50 -99 11z"/>
<path d="M17076 5089 c-71 -86 27 -231 118 -174 89 56 57 210 -44 210 -24 0
-57 -16 -74 -36z"/>
<path d="M16496 5025 c-247 -74 -521 -507 -521 -821 0 -268 201 -589 360 -574
101 10 112 80 30 191 -80 109 -67 135 123 241 188 105 222 97 275 -63 37 -113
114 -181 156 -138 39 38 118 705 97 816 -24 131 -167 285 -308 333 -129 44
-119 44 -212 15z"/>
<path d="M18604 4842 c-34 -41 -16 -107 34 -126 44 -17 94 44 83 101 -11 57
-79 71 -117 25z"/>
<path d="M18444 4294 c-15 -41 4 -94 33 -94 13 0 23 28 23 63 0 65 -36 85 -56
31z"/>
<path d="M19594 2973 c-90 -52 -28 -223 81 -223 59 0 126 92 107 147 -31 89
-110 121 -188 76z"/>
<path d="M22705 4695 c-42 -42 -37 -158 8 -195 87 -72 179 104 98 186 -47 47
-66 49 -106 9z"/>
<path d="M22689 3802 c-79 -88 36 -249 125 -176 53 44 45 167 -12 198 -63 34
-62 34 -113 -22z"/>
<path d="M24967 38958 c-46 -45 -16 -133 46 -133 43 0 62 14 62 45 0 71 -69
127 -108 88z"/>
<path d="M26083 38734 c-18 -47 103 -168 151 -152 50 17 46 88 -7 141 -63 63
-123 67 -144 11z"/>
<path d="M14553 38391 c-32 -34 -93 -76 -137 -93 -158 -63 -201 -134 -127
-209 73 -72 159 -47 286 83 65 67 143 130 173 140 38 12 53 34 47 71 -12 84
-166 89 -242 8z"/>
<path d="M27266 38163 c-19 -50 7 -113 46 -113 47 0 96 69 79 112 -19 49 -106
49 -125 1z"/>
<path d="M13146 37919 c-66 -53 -74 -116 -20 -170 61 -61 108 -61 243 0 113
52 149 154 66 186 -68 26 -249 16 -289 -16z"/>
<path d="M30356 37021 c-43 -43 -39 -135 10 -183 60 -60 219 -42 229 27 15
108 -168 227 -239 156z"/>
<path d="M30931 36708 c-38 -15 -41 -124 -5 -146 56 -34 149 12 149 73 0 74
-63 106 -144 73z"/>
<path d="M32592 35733 c-43 -42 -11 -133 71 -205 160 -141 219 -68 99 122 -58
92 -128 126 -170 83z"/>
<path d="M9107 35673 c-64 -24 -101 -137 -64 -196 68 -109 231 -1 197 133 -18
71 -58 91 -133 63z"/>
<path d="M8480 35136 c-133 -56 -154 -143 -55 -236 92 -86 120 -77 187 64 71
151 10 232 -132 172z"/>
<path d="M33194 35156 c-73 -16 -84 -125 -20 -193 178 -189 378 -88 214 107
-65 77 -120 102 -194 86z"/>
<path d="M34205 34195 c-42 -42 -37 -81 16 -129 60 -54 96 -52 129 9 54 101
-65 200 -145 120z"/>
<path d="M6371 33200 c-155 -155 -35 -303 125 -154 114 107 101 229 -25 229
-14 0 -58 -34 -100 -75z"/>
<path d="M5974 32612 c-43 -53 7 -162 75 -162 60 0 109 84 88 151 -19 59 -117
66 -163 11z"/>
<path d="M35830 32595 c-47 -47 -36 -113 26 -156 124 -87 215 17 109 124 -71
70 -92 75 -135 32z"/>
<path d="M5652 32327 c-68 -52 -82 -173 -28 -238 48 -58 89 -48 161 38 141
167 33 328 -133 200z"/>
<path d="M4130 30224 c-69 -64 -71 -139 -5 -174 103 -55 224 98 150 188 -42
50 -80 47 -145 -14z"/>
<path d="M38378 29293 c-35 -35 -37 -205 -2 -270 50 -93 174 -43 174 71 0 130
-112 259 -172 199z"/>
<path d="M38612 28709 c-77 -77 -3 -234 111 -234 134 0 168 111 66 214 -72 71
-120 77 -177 20z"/>
<path d="M3159 28394 c-103 -109 -120 -166 -68 -223 49 -54 117 -42 203 36 65
60 74 172 17 229 -54 54 -65 51 -152 -42z"/>
<path d="M38992 27908 c-63 -62 102 -533 187 -533 97 0 80 355 -22 478 -58 68
-129 92 -165 55z"/>
<path d="M2602 27552 c-100 -100 -94 -264 9 -264 69 0 206 204 173 257 -39 62
-123 66 -182 7z"/>
<path d="M1755 25270 c-71 -71 -8 -214 80 -180 46 18 78 116 56 172 -17 45
-94 50 -136 8z"/>
<path d="M1534 24013 c-17 -46 5 -113 39 -113 31 0 60 92 40 125 -23 37 -62
31 -79 -12z"/>
<path d="M40440 23334 c-18 -47 25 -109 76 -109 21 0 34 28 34 75 0 84 -82
109 -110 34z"/>
<path d="M40692 22158 c-30 -30 -18 -146 22 -202 72 -104 236 -42 236 89 0 81
-202 170 -258 113z"/>
<path d="M1215 21648 c-65 -77 -92 -299 -50 -408 50 -130 157 93 154 318 -3
189 -13 198 -104 90z"/>
<path d="M40664 21077 c-50 -55 -37 -123 36 -189 94 -86 180 29 127 169 -30
80 -100 89 -163 20z"/>
<path d="M1075 20919 c-120 -188 -119 -174 -22 -366 84 -170 121 -182 154 -51
12 47 38 103 58 125 45 51 44 84 -2 123 -26 21 -38 78 -38 178 0 187 -27 185
-150 -9z"/>
<path d="M40716 19663 c-22 -57 9 -113 62 -113 36 0 47 18 47 75 0 82 -81 110
-109 38z"/>
<path d="M1237 17524 c-61 -184 -19 -349 88 -349 77 0 99 150 49 329 -44 160
-88 166 -137 20z"/>
<path d="M40201 15939 c-47 -57 -21 -126 47 -126 68 0 117 62 94 121 -19 51
-101 53 -141 5z"/>
<path d="M1539 15852 c-25 -40 35 -138 66 -107 31 31 17 110 -21 123 -16 5
-37 -2 -45 -16z"/>
<path d="M40124 15261 c-80 -96 0 -305 94 -246 70 44 93 153 46 223 -46 71
-94 79 -140 23z"/>
<path d="M39318 12822 c-74 -42 -48 -197 34 -197 60 0 98 73 72 141 -27 71
-53 85 -106 56z"/>
<path d="M2741 12538 c-50 -51 -51 -73 -5 -112 69 -57 120 36 67 120 -17 26
-29 25 -62 -8z"/>
<path d="M38710 11740 c-97 -97 -109 -180 -38 -267 45 -56 49 -57 112 -15 98
64 178 234 144 308 -38 84 -118 74 -218 -26z"/>
<path d="M3155 11420 c-72 -72 25 -245 137 -245 20 0 68 -35 107 -78 46 -50
86 -73 112 -64 58 23 48 100 -21 165 -34 31 -74 88 -90 126 -43 104 -183 158
-245 96z"/>
<path d="M38588 11226 c-51 -57 -113 -66 -157 -22 -46 46 -96 -88 -66 -174 51
-139 268 -58 300 113 21 110 -16 150 -77 83z"/>
<path d="M38047 10681 c-29 -65 -79 -171 -112 -235 -70 -135 -74 -178 -22
-222 76 -63 312 251 312 414 0 185 -105 210 -178 43z"/>
<path d="M3688 10476 c-20 -61 26 -151 76 -151 50 0 86 101 57 156 -31 59
-114 56 -133 -5z"/>
<path d="M4250 9730 c0 -121 129 -185 162 -81 23 73 -29 151 -100 151 -51 0
-62 -12 -62 -70z"/>
<path d="M36587 8700 c-25 -41 -22 -175 5 -202 78 -78 229 104 158 190 -35 42
-139 50 -163 12z"/>
<path d="M6439 7277 c-94 -105 31 -462 156 -447 96 11 108 205 25 370 -65 128
-115 149 -181 77z"/>
<path d="M35025 6875 c0 -33 17 -50 50 -50 33 0 50 17 50 50 0 33 -17 50 -50
50 -33 0 -50 -17 -50 -50z"/>
<path d="M7669 6069 c-66 -102 -76 -168 -33 -233 80 -122 249 -41 244 116 -4
151 -140 226 -211 117z"/>
<path d="M34061 5964 c-71 -72 -72 -132 -3 -174 37 -23 56 -15 107 44 119 137
23 257 -104 130z"/>
<path d="M33235 5189 c-18 -47 8 -89 54 -89 22 0 36 25 36 63 0 68 -67 88 -90
26z"/>
<path d="M8992 4908 c-33 -33 -16 -126 31 -169 98 -88 212 16 139 127 -36 56
-133 80 -170 42z"/>
<path d="M32768 4909 c-27 -26 -22 -129 7 -147 56 -34 128 16 120 84 -7 65
-86 105 -127 63z"/>
<path d="M31979 4392 c-71 -75 -69 -156 5 -204 140 -92 319 105 202 223 -57
56 -144 48 -207 -19z"/>
<path d="M30509 3413 c-22 -58 9 -113 64 -113 54 0 102 68 84 119 -16 44 -131
39 -148 -6z"/>
<path d="M13506 2486 c-125 -87 -7 -278 133 -215 72 33 84 152 22 215 -50 49
-85 49 -155 0z"/>
<path d="M27636 2099 c-35 -40 -40 -62 -20 -94 63 -101 233 -20 197 93 -21 68
-116 68 -177 1z"/>
<path d="M27409 2088 c-20 -52 7 -113 50 -113 20 0 42 17 50 38 20 51 -7 112
-50 112 -20 0 -42 -17 -50 -37z"/>
<path d="M14552 2005 c-32 -61 22 -167 85 -167 71 0 134 120 90 172 -45 54
-145 51 -175 -5z"/>
<path d="M26126 1764 c-37 -45 -14 -89 48 -89 56 0 82 59 44 97 -37 37 -56 35
-92 -8z"/>
<path d="M15842 1608 c-63 -62 54 -208 166 -208 97 0 144 104 80 175 -45 49
-208 71 -246 33z"/>
<path d="M25626 1576 c-57 -57 -64 -105 -25 -178 60 -112 310 15 294 149 -10
90 -189 109 -269 29z"/>
<path d="M16942 1559 c-34 -34 -16 -88 27 -79 24 4 44 24 44 43 0 40 -45 62
-71 36z"/>
<path d="M24539 1286 c-55 -55 -49 -83 22 -100 104 -26 171 87 74 124 -52 20
-51 21 -96 -24z"/>
<path d="M22501 1127 c-41 -77 -31 -127 30 -150 87 -34 163 49 124 134 -35 76
-117 84 -154 16z"/>
<path d="M18986 1073 c-24 -39 56 -99 105 -81 20 8 33 33 29 55 -10 49 -108
68 -134 26z"/>
<path d="M19710 1039 c-27 -71 1 -126 65 -126 77 0 100 82 35 129 -57 42 -83
42 -100 -3z"/>
<path d="M20079 946 c5 -32 25 -58 46 -58 54 0 47 97 -8 108 -36 6 -44 -5 -38
-50z"/>
<path d="M20400 875 c0 -41 13 -52 56 -45 31 4 57 24 57 45 0 21 -26 41 -57
45 -43 7 -56 -4 -56 -45z"/>
</g>
</svg>
